<svg width="165" height="62" viewBox="0 0 165 62" fill="none" xmlns="http://www.w3.org/2000/svg">
<g clip-path="url(#clip0_557_1428)">
<path d="M92.962 16.5448C92.962 22.0484 89.8759 27.904 83.1629 27.904C76.4181 27.904 73.332 22.0484 73.332 16.5448C73.332 11.0411 76.4181 5.1855 83.1629 5.1855C89.8759 5.1855 92.962 11.0411 92.962 16.5448ZM77.3726 16.5448C77.3726 23.3283 80.045 25.9841 83.1629 25.9841C86.2172 25.9841 88.9214 23.3283 88.9214 16.5448C88.9214 9.7932 86.2172 7.10537 83.1629 7.10537C80.045 7.10537 77.3726 9.7932 77.3726 16.5448Z" fill="#1C1400"/>
<path d="M93.7894 27.584V25.8241H95.8892V5.37749H93.7894V3.6176C97.6708 3.6176 98.5617 3.5856 99.1343 3.26562L99.6116 3.5856V25.8241H101.711V27.584H93.7894Z" fill="#1C1400"/>
<path d="M108.889 27.904C106.248 27.904 104.085 26.8161 104.085 22.5924V13.217H101.348V11.8411C104.689 11.8411 105.898 9.37722 105.898 5.72946H107.711V11.4571H113.088V13.217H107.807V22.1444C107.807 24.7042 108.38 25.9841 109.843 25.9841C111.275 25.9841 111.784 24.3522 111.784 21.7924H113.375C113.375 25.5362 112.261 27.904 108.889 27.904Z" fill="#1C1400"/>
<path d="M119.522 11.4251V25.8241H121.622V27.584H113.668V25.8241H115.8V13.217H113.668V11.4571C117.422 11.4571 118.345 11.4251 118.949 11.1051L119.522 11.4251Z" fill="#1C1400"/>
<path d="M129.873 25.8241V27.584H122.142V25.8241H124.274V13.217H122.142V11.4571C125.61 11.4571 126.087 11.4251 126.756 11.1051L127.328 11.4251V15.2328C128.219 12.833 130.001 11.1051 132.832 11.1051C136.3 11.1051 138.495 12.897 138.495 17.5047V25.8241H140.595V27.584H132.864V25.8241H134.773V17.7607C134.773 14.7529 133.437 13.6649 131.432 13.6649C129.333 13.6649 127.996 15.0409 127.996 18.2406V25.8241H129.873Z" fill="#1C1400"/>
<path d="M89.0169 58.5988C86.9807 58.5988 85.5809 57.5109 84.8173 55.239C84.2764 55.335 83.7356 55.367 83.1629 55.367C76.4181 55.367 73.332 49.5114 73.332 44.0078C73.332 38.5041 76.4181 32.6485 83.1629 32.6485C89.8759 32.6485 92.962 38.5041 92.962 44.0078C92.962 48.1355 91.2121 52.4872 87.4898 54.3751C87.967 56.071 88.476 56.6469 89.3669 56.6469C90.0986 56.6469 90.7031 56.199 90.7031 53.8311H92.3893C92.3893 56.519 91.5621 58.5988 89.0169 58.5988ZM82.4312 47.7515C84.7537 47.7515 85.8672 48.7115 86.7898 51.7833C88.0624 50.3114 88.9214 47.8155 88.9214 44.0078C88.9214 37.2562 86.2172 34.5684 83.1629 34.5684C80.045 34.5684 77.3726 37.2562 77.3726 44.0078C77.3726 46.8876 77.8498 49.0314 78.6452 50.5353C79.2496 48.9355 80.4586 47.7515 82.4312 47.7515ZM83.1629 53.4472C83.5447 53.4472 83.9583 53.4152 84.3082 53.3192C83.6719 50.5034 82.972 49.7034 81.7312 49.7034C80.7131 49.7034 79.9178 50.4714 79.6632 51.9753C80.6495 52.9992 81.8585 53.4472 83.1629 53.4472Z" fill="#1C1400"/>
<path d="M107.438 55.367C105.338 55.367 104.225 54.1511 104.002 52.2952C102.92 54.5351 101.234 55.367 98.9753 55.367C95.921 55.367 94.0757 53.7351 94.0757 50.9833C94.0757 47.8155 96.4937 45.7357 102.443 45.7357H103.716V44.0398C103.716 41.4479 102.411 40.2 100.121 40.2C98.9753 40.2 98.0208 40.424 97.3527 41.096C98.1481 41.384 98.498 42.0559 98.498 42.6319C98.498 43.6878 97.7663 44.3918 96.6209 44.3918C95.4438 44.3918 94.712 43.6558 94.712 42.5999C94.712 40.296 97.3845 38.5681 101.202 38.5681C105.402 38.5681 107.438 40.52 107.438 44.5197V51.4633C107.438 52.6792 107.852 53.1272 108.52 53.1272C109.252 53.1272 109.665 52.4232 109.665 50.5353H111.033C111.033 53.7991 109.92 55.367 107.438 55.367ZM100.471 53.0952C102.316 53.0952 103.716 51.3673 103.716 49.8314V47.1116H102.507C99.5479 47.1116 97.9254 48.2635 97.9254 50.3754C97.9254 52.0712 98.848 53.0952 100.471 53.0952Z" fill="#1C1400"/>
<path d="M111.37 55.0471V53.2872H113.47V32.8405H111.37V31.0806C115.251 31.0806 116.142 31.0486 116.715 30.7286L117.192 31.0486V53.2872H119.292V55.0471H111.37Z" fill="#1C1400"/>
<path d="M133.246 55.367C131.146 55.367 130.032 54.1511 129.81 52.2952C128.728 54.5351 127.042 55.367 124.783 55.367C121.729 55.367 119.883 53.7351 119.883 50.9833C119.883 47.8155 122.301 45.7357 128.251 45.7357H129.523V44.0398C129.523 41.4479 128.219 40.2 125.928 40.2C124.783 40.2 123.828 40.424 123.16 41.096C123.956 41.384 124.306 42.0559 124.306 42.6319C124.306 43.6878 123.574 44.3918 122.428 44.3918C121.251 44.3918 120.52 43.6558 120.52 42.5999C120.52 40.296 123.192 38.5681 127.01 38.5681C131.209 38.5681 133.246 40.52 133.246 44.5197V51.4633C133.246 52.6792 133.659 53.1272 134.327 53.1272C135.059 53.1272 135.473 52.4232 135.473 50.5353H136.841C136.841 53.7991 135.727 55.367 133.246 55.367ZM126.278 53.0952C128.123 53.0952 129.523 51.3673 129.523 49.8314V47.1116H128.314C125.355 47.1116 123.733 48.2635 123.733 50.3754C123.733 52.0712 124.656 53.0952 126.278 53.0952Z" fill="#1C1400"/>
<path d="M137.195 55.0471V53.2872H139.326V40.68H137.195V38.9201C140.472 38.9201 141.013 38.9201 141.585 38.5681L142.285 38.8881V42.4079C143.303 39.88 145.148 38.5681 147.885 38.5681C149.825 38.5681 151.671 39.5601 152.148 42.0879C153.039 39.7521 154.979 38.5681 157.588 38.5681C160.324 38.5681 162.456 40.232 162.456 44.4238V53.2872H164.556V55.0471H156.984V53.2872H158.734V45.1277C158.734 42.4399 157.938 40.872 155.87 40.872C153.834 40.872 152.752 42.5999 152.752 45.4157V53.2872H154.47V55.0471H147.28V53.2872H149.03V45.1277C149.03 42.4399 148.171 40.872 146.071 40.872C144.194 40.872 143.049 42.5679 143.049 45.4157V53.2872H144.767V55.0471H137.195Z" fill="#1C1400"/>
<path d="M118.157 5.89497L120.316 8.06641C119.124 9.26566 117.191 9.26566 115.998 8.06641L118.157 5.89497Z" fill="#FFC310"/>
<rect y="0.433594" width="60.7895" height="61.1387" rx="15.1974" fill="url(#paint0_linear_557_1428)"/>
<path d="M36.9469 39.7863C39.4572 42.6177 40.128 45.265 39.8587 47.6262C32.0636 56.9941 14.0598 53.0997 4.66406 30.1526L26.4638 9.58203L28.1864 12.766C29.5507 15.2787 31.4184 17.4795 33.6715 19.2292C35.9246 20.9789 38.5141 22.2394 41.2764 22.9312L28.6539 35.7744L28.3846 36.0504C29.4117 36.0241 30.4375 36.1393 31.4335 36.3928L31.4843 36.3417C33.617 36.8906 35.5265 38.0947 36.9469 39.7863Z" fill="white"/>
<path d="M39.8295 47.0649V47.6322L55.9379 30.174C55.7491 27.3472 54.5579 24.6825 52.581 22.6642C50.604 20.6459 47.9726 19.4081 45.1651 19.1758H44.9873L28.3555 36.0667C31.3247 36.0035 34.1982 37.1247 36.3481 39.1855C38.498 41.2463 39.7496 44.079 39.8295 47.0649Z" fill="#FFBC0D"/>
<path d="M27.9062 47.5156V42.0625C29.3442 42.0625 30.7234 42.637 31.7402 43.6597C32.757 44.6823 33.3282 46.0694 33.3282 47.5156H27.9062Z" fill="#1C1400"/>
<path d="M49.1161 20.2112L32.6164 36.8056C32.2153 36.6468 31.8046 36.5136 31.3867 36.407L47.9626 19.7461C48.3552 19.8802 48.7402 20.0354 49.1161 20.2112Z" fill="#1C1400"/>
<path d="M53.1821 23.3156L36.8806 39.7006C36.622 39.4141 36.349 39.1412 36.0625 38.8829L52.3945 22.457C52.6715 22.7294 52.9344 23.016 53.1821 23.3156Z" fill="#1C1400"/>
<path d="M55.6185 28.0751L39.444 44.3425C39.3296 43.9273 39.1905 43.5194 39.0273 43.1211L55.2272 26.8281C55.382 27.2357 55.5126 27.6521 55.6185 28.0751Z" fill="#1C1400"/>
</g>
<defs>
<linearGradient id="paint0_linear_557_1428" x1="30.3947" y1="0.433594" x2="30.3947" y2="61.5723" gradientUnits="userSpaceOnUse">
<stop stop-color="#3A2900"/>
<stop offset="1" stop-color="#1C1400"/>
</linearGradient>
<clipPath id="clip0_557_1428">
<rect width="165" height="61" fill="white" transform="translate(0 0.4375)"/>
</clipPath>
</defs>
</svg>
