<svg width="92" height="88" viewBox="0 0 92 88" fill="none" xmlns="http://www.w3.org/2000/svg">
<mask id="mask0_4_357" style="mask-type:alpha" maskUnits="userSpaceOnUse" x="0" y="0" width="92" height="88">
<rect width="92" height="88" fill="#FF7F4D"/>
</mask>
<g mask="url(#mask0_4_357)">
<path d="M40.2952 95.0605C41.6045 93.4095 42.3269 92.0354 42.7122 90.9443L42.9741 91.1068C44.3557 84.9242 41.6993 78.9101 41.6993 78.9101L32.9085 76.4479C32.9085 76.4479 31.554 80.6876 30.4463 83.2988C28.723 85.621 25.9327 86.36 25.9327 86.36L24.229 97.604C24.2275 97.6055 36.5206 99.8209 40.2952 95.0605Z" fill="#E54728"/>
<path d="M52.9735 67.1981C58.6293 70.4866 64.2777 72.1436 70.808 71.7342L89.0263 62.6228C91.3456 56.0835 93.141 49.2236 92.816 42.293C92.4909 35.3623 89.8074 28.3038 84.4525 23.8925C81.9256 21.8111 78.911 20.3843 76.4022 18.2803C72.8533 15.3034 70.3745 11.0216 66.2974 8.82123C59.8303 5.33108 50.7746 6.81353 47.6758 13.6463C42.9726 13.1542 37.2143 17.8017 41.1169 30.5703C42.1854 34.068 43.9508 38.72 43.3714 42.3306C41.6993 52.7634 45.3505 62.7673 52.9735 67.1981Z" fill="#2E0031"/>
<path d="M94.2834 65.1874C92.1447 49.8046 79.4423 47.1316 79.4423 47.1316L53.3437 48.0542C53.3437 48.0542 46.8194 48.3357 42.0184 54.288C37.2174 60.2404 34.8169 62.6409 34.6318 68.1809C34.4466 73.7209 37.7712 81.6614 39.2477 84.4307C40.7256 87.1999 39.6164 94.5866 39.6164 94.5866C39.6164 94.5866 59.4812 113.607 89.2732 109.42C88.4108 106.872 87.5017 104.171 87.2489 101.979C93.722 92.1891 96.0638 78.0057 94.2834 65.1874Z" fill="#FF572F"/>
<path d="M38.9406 93.7781C38.8894 94.0159 39.0113 94.2658 39.2567 94.3335C39.4824 94.3952 39.7609 94.2582 39.812 94.0174C40.2681 91.9104 40.3794 89.7341 40.1356 87.5925C39.8888 85.4162 39.3048 83.2987 38.3928 81.3075C37.8901 80.2103 37.2836 79.1629 36.5837 78.1786C36.4423 77.9799 36.1894 77.8851 35.9667 78.016C35.771 78.1304 35.6627 78.4344 35.8042 78.6331C37.0097 80.3262 37.9292 82.209 38.5267 84.1987C39.1227 86.1778 39.4042 88.2412 39.353 90.3076C39.3244 91.477 39.1874 92.6358 38.9406 93.7781Z" fill="#180205"/>
<path d="M71.7472 28.2962C71.994 23.4335 67.7468 24.1108 66.6376 26.3879C66.6376 26.3879 61.7132 26.573 58.6971 22.0173C55.681 17.4631 50.8589 17.1545 48.8286 19.8019C48.8286 19.8019 45.7719 19.248 45.34 23.8639C44.9096 28.4798 46.7653 43.0063 56.1175 42.8227C56.1175 42.8227 56.0513 46.3926 55.8044 47.6237L53.3422 48.0542C53.3422 48.0542 55.2566 53.9253 64.4839 54.2714C75.9943 54.7019 79.4408 47.1316 79.4408 47.1316L72.6697 45.5318C72.6697 45.5318 68.1155 39.4996 67.2532 32.4832C67.2532 32.4817 71.5003 33.159 71.7472 28.2962Z" fill="#FFBEAE"/>
<path d="M73.4915 53.0786C75.2253 52.3065 76.8326 51.265 78.2534 50.0053C78.4355 49.8428 78.4189 49.5312 78.2534 49.3672C78.0728 49.1866 77.7974 49.2047 77.6152 49.3672C75.2072 51.5013 72.2152 52.9356 69.0562 53.5286C65.8791 54.1246 62.574 53.7859 59.558 52.6406C57.8708 51.9995 56.268 51.092 54.8578 49.9662C54.6682 49.8142 54.4048 49.7796 54.2197 49.9662C54.0616 50.1242 54.0285 50.4523 54.2197 50.6043C56.9121 52.755 60.154 54.1231 63.5704 54.5701C66.9431 55.011 70.3896 54.4602 73.4915 53.0786Z" fill="#180205"/>
<path d="M72.3672 85.4763C72.6848 84.2874 73.0039 83.0984 73.3214 81.9094C73.8271 80.0221 74.3313 78.1363 74.837 76.249C74.9529 75.8156 75.0687 75.3836 75.1846 74.9502C75.3351 74.3888 74.4637 74.148 74.3132 74.7094C73.9957 75.8984 73.6766 77.0873 73.359 78.2763C72.8533 80.1636 72.3492 82.0494 71.8435 83.9367C71.7276 84.3702 71.6117 84.8021 71.4958 85.2355C71.3453 85.7984 72.2167 86.0377 72.3672 85.4763Z" fill="#180205"/>
<path d="M78.7636 70.3997L59.7446 49.349C59.7446 49.349 51.0034 50.3333 44.1571 52.0716C37.3107 53.8099 31.0664 57.1059 31.0664 57.1059C31.0664 57.1059 27.6139 53.7813 21.5817 52.9851C15.5496 52.189 7.17863 51.4425 7.17863 51.4425L4.63365 54.5278L27.1217 65.692L77.7492 75.2354L78.7636 70.3997Z" fill="#FCF4E6"/>
<path d="M50.1425 82.2173L78.7635 76.45L59.5037 53.4006L34.6227 58.766H29.6441L3.23842 54.29L21.5199 76.45L42.5707 81.2947L50.1425 82.2173Z" fill="#0E6AC3"/>
<path d="M34.6227 58.7659H29.6441L42.5708 81.2946L50.1425 82.2171L34.6227 58.7659Z" fill="#1058C1"/>
<path d="M44.7862 78.9115L48.7248 82.2166C48.7248 82.2166 53.0337 80.1592 54.8804 78.1109C54.8804 78.1109 51.6792 75.8774 51.187 70.4608C50.6949 65.0443 48.0475 65.413 46.8164 66.0285C45.5853 66.6441 45.8939 68.4908 44.1691 68.8595C42.4458 69.2282 35.9216 64.7974 33.0274 65.9668C30.1347 67.1362 30.812 70.521 32.6587 72.6762C34.5068 74.8299 38.8157 78.0687 44.7862 78.9115Z" fill="#FFBEAE"/>
<path d="M81.5343 105.668C88.93 104.611 93.1923 91.7613 94.2714 79.4577C94.8899 72.4082 71.9323 85.3559 71.9323 85.3559C68.7928 84.4333 53.8359 76.4492 53.8359 76.4492C50.5113 79.7301 47.3733 81.8477 47.3733 81.8477C51.0651 87.3877 69.9005 107.331 81.5343 105.668Z" fill="#FF572F"/>
<path d="M73.5488 85.7165C73.5018 85.6968 73.6323 85.7514 73.5488 85.7165V85.7165Z" fill="#180205"/>
<path d="M53.6071 76.839C53.7094 76.8916 53.8118 76.9443 53.9141 76.9985C53.9939 76.9217 54.0752 76.8465 54.1549 76.7682C53.9713 76.7923 53.7892 76.8149 53.6071 76.839Z" fill="#180205"/>
<path d="M53.9142 76.9989C53.8118 76.9462 53.7095 76.8935 53.6071 76.8394C53.7892 76.8153 53.9713 76.7927 54.155 76.7686C54.0752 76.8469 53.9939 76.9206 53.9142 76.9989C54.4123 77.2578 54.912 77.5181 55.4117 77.7755C56.8806 78.5355 58.3525 79.2911 59.8259 80.0421C61.6816 80.9872 63.5403 81.9264 65.4065 82.8534C67.1704 83.7294 68.9403 84.5978 70.7253 85.43C71.9218 85.9884 73.1273 86.5739 74.378 87.0028C74.4607 87.0314 74.545 87.0585 74.6308 87.0841C75.1892 87.2496 75.427 86.3782 74.8716 86.2127C74.4231 86.0802 73.9897 85.8966 73.5577 85.7175C73.5547 85.716 73.5532 85.716 73.5502 85.7145C73.633 85.7491 73.5035 85.6949 73.5502 85.7145C73.5472 85.713 73.5472 85.713 73.5442 85.7115C73.5126 85.6979 73.4795 85.6844 73.4479 85.6709C73.3666 85.6362 73.2853 85.6016 73.2056 85.567C73.0475 85.4993 72.891 85.4301 72.7345 85.3593C72.3793 85.2013 72.0271 85.0403 71.6749 84.8777C69.9427 84.0785 68.2284 83.2417 66.5187 82.3959C64.639 81.4673 62.7667 80.5237 60.8975 79.5725C59.3593 78.7899 57.8227 78.0028 56.2891 77.2096C55.5592 76.8318 54.8352 76.436 54.0978 76.0733C54.0872 76.0688 54.0767 76.0628 54.0677 76.0568C53.8871 75.9635 53.6688 75.9815 53.5198 76.1275C51.6702 77.9501 49.6835 79.6492 47.572 81.1573C47.432 81.2581 47.2906 81.3575 47.1476 81.4553C46.9549 81.5862 46.8436 81.8586 46.985 82.0723C47.7842 83.2688 48.7083 84.3871 49.6414 85.4812C50.9824 87.0525 52.3896 88.568 53.8389 90.0399C55.5576 91.7873 57.3381 93.4744 59.1802 95.0893C61.1217 96.7915 63.1339 98.4154 65.2319 99.9189C67.2261 101.347 69.3045 102.672 71.4989 103.772C73.4343 104.743 75.4827 105.567 77.6183 105.966C79.5718 106.33 81.6397 106.362 83.4969 105.573C85.7003 104.639 87.3738 102.769 88.6546 100.802C90.2831 98.301 91.3998 95.4686 92.2697 92.6256C93.2705 89.3552 93.9343 85.9869 94.3797 82.5976C94.4896 81.7608 94.5844 80.921 94.6657 80.0797C94.6898 79.8374 94.4415 79.6282 94.2142 79.6282C93.9508 79.6282 93.7868 79.8359 93.7627 80.0797C93.4361 83.4464 92.8853 86.7951 92.0454 90.0731C91.2914 93.0184 90.3147 95.9411 88.8804 98.6321C87.7652 100.726 86.3038 102.827 84.3202 104.113C83.4397 104.685 82.5578 105.051 81.5088 105.215C81.4862 105.218 81.3929 105.232 81.3854 105.233C81.3959 105.232 81.4049 105.23 81.4155 105.23C81.3899 105.233 81.3839 105.235 81.3854 105.233C81.3492 105.238 81.3116 105.242 81.2755 105.247C81.1611 105.26 81.0467 105.271 80.9324 105.28C80.7081 105.298 80.4824 105.307 80.2566 105.31C79.7991 105.316 79.3415 105.293 78.887 105.247C78.7787 105.236 78.6718 105.223 78.565 105.209C78.5273 105.205 78.5183 105.203 78.5168 105.203C78.5183 105.203 78.5153 105.203 78.5168 105.203C78.5153 105.203 78.5063 105.202 78.4686 105.196C78.4039 105.186 78.3377 105.176 78.273 105.165C78.0382 105.128 77.8034 105.086 77.5701 105.038C77.072 104.935 76.5798 104.809 76.0922 104.664C75.0763 104.363 74.08 103.979 73.1529 103.563C71.0007 102.593 68.9629 101.382 67.0094 100.06C64.9309 98.6547 62.9458 97.1151 61.0299 95.4956C59.1501 93.9063 57.3366 92.2388 55.5847 90.511C54.0571 89.0045 52.5732 87.4513 51.1509 85.8439C50.5715 85.1892 50.0026 84.5255 49.4487 83.8483C49.2125 83.5593 48.9792 83.2673 48.7504 82.9723C48.7384 82.9573 48.7023 82.9091 48.6947 82.9001C48.7038 82.9121 48.7128 82.9242 48.7233 82.9362C48.6977 82.9016 48.6917 82.8941 48.6947 82.9001C48.6812 82.8835 48.6692 82.867 48.6556 82.8489C48.6029 82.7797 48.5503 82.712 48.4991 82.6427C48.4073 82.5208 48.3155 82.3974 48.2252 82.2725C48.1484 82.1672 48.0762 82.0588 48.0009 81.9519C47.8685 82.0453 47.7345 82.1386 47.6006 82.2289C47.6548 82.0227 47.7089 81.8165 47.7631 81.6118C47.8399 81.7277 47.9227 81.8391 48.0009 81.9519C49.3931 80.9797 50.7145 79.8901 51.9892 78.7733C52.6454 78.2044 53.2866 77.6084 53.9142 76.9989Z" fill="#180205"/>
<path d="M48.7236 82.9437C48.7145 82.9315 48.7054 82.9194 48.6948 82.9072C48.6902 82.9027 48.6963 82.9103 48.7236 82.9437Z" fill="#180205"/>
<path d="M47.6006 82.2377C47.7345 82.1474 47.8684 82.0541 48.0009 81.9608C47.9211 81.8479 47.8398 81.735 47.7631 81.6206C47.7074 81.8253 47.6532 82.0315 47.6006 82.2377Z" fill="#180205"/>
<path d="M25.8906 67.8074C24.9063 65.4626 17.172 60.7504 12.842 65.9277C8.51057 71.1049 14.6887 78.1093 14.6887 78.1093L16.412 82.954C20.1053 84.3085 25.5219 81.2308 25.5219 81.2308L24.2908 79.5075C25.5219 75.5689 23.922 73.9525 23.922 73.9525C26.0125 72.7078 26.8749 70.1523 25.8906 67.8074Z" fill="#FFBEAE"/>
<path d="M30.4448 83.3005C30.4448 83.3005 26.7454 81.6239 25.6438 80.0933C25.6438 80.0933 22.3192 81.9701 15.5496 82.2169C15.5496 82.2169 17.8884 94.4046 24.229 97.6058L30.4448 83.3005Z" fill="#E54728"/>
<path d="M67.6098 28.543C67.6489 27.4955 68.6919 26.6587 69.7168 26.7882C69.8387 26.8032 69.9426 26.6738 69.9426 26.5624C69.9426 26.4285 69.8387 26.3517 69.7168 26.3367C68.4406 26.1756 67.2065 27.2743 67.1583 28.543C67.1478 28.8335 67.5993 28.8335 67.6098 28.543Z" fill="#180205"/>
<path d="M57.1635 29.8704C57.5985 29.7906 57.8558 29.2052 57.7384 28.5655C57.6195 27.9259 57.171 27.4714 56.7361 27.5512C56.3011 27.6309 56.0438 28.2164 56.1612 28.856C56.2786 29.4972 56.7286 29.9502 57.1635 29.8704Z" fill="#180205"/>
<path d="M56.8097 29.6511C56.9793 29.6511 57.1168 29.5137 57.1168 29.3441C57.1168 29.1745 56.9793 29.0371 56.8097 29.0371C56.6402 29.0371 56.5027 29.1745 56.5027 29.3441C56.5027 29.5137 56.6402 29.6511 56.8097 29.6511Z" fill="white"/>
<path d="M50.4005 31.6214C50.8143 31.4632 50.9614 30.8421 50.729 30.2342C50.4966 29.6262 49.9727 29.2616 49.5588 29.4198C49.145 29.578 48.9979 30.1991 49.2303 30.8071C49.4627 31.415 49.9866 31.7796 50.4005 31.6214Z" fill="#180205"/>
<path d="M50.0071 31.4616C50.1742 31.43 50.2841 31.2704 50.254 31.1034C50.2224 30.9363 50.0628 30.8265 49.8958 30.8566C49.7287 30.8867 49.6188 31.0477 49.6489 31.2148C49.679 31.3818 49.8401 31.4932 50.0071 31.4616Z" fill="white"/>
<path d="M55.3981 25.7067C55.5772 25.3862 55.8707 25.1408 56.2258 25.04C56.6141 24.9286 57.0265 25.0054 57.3636 25.2236C57.6075 25.3817 57.8347 24.9918 57.5909 24.8338C57.1575 24.5524 56.6036 24.4621 56.1054 24.6051C55.6419 24.7375 55.2416 25.0581 55.0083 25.4795C54.8668 25.7338 55.2566 25.9611 55.3981 25.7067Z" fill="#180205"/>
<path d="M47.8715 28.0732C48.0506 27.7526 48.344 27.5073 48.6992 27.4065C49.0875 27.2951 49.4999 27.3718 49.837 27.5901C50.0808 27.7481 50.3081 27.3583 50.0643 27.2003C49.6308 26.9188 49.077 26.8285 48.5788 26.9715C48.1153 27.1039 47.7149 27.4245 47.4817 27.8459C47.3402 28.0988 47.73 28.3275 47.8715 28.0732Z" fill="#180205"/>
<path d="M52.4452 33.5099C52.4874 33.4241 52.525 33.3368 52.5626 33.2511C52.4783 33.2315 52.3941 33.2074 52.3098 33.1788C52.3549 33.2902 52.4001 33.4001 52.4452 33.5099Z" fill="#180205"/>
<path d="M52.1893 33.6136C52.6619 33.7746 53.157 33.8062 53.6477 33.7264C53.9336 33.6798 53.8117 33.2448 53.5273 33.2915C53.2022 33.3442 52.8771 33.3261 52.5611 33.2508C52.5234 33.3381 52.4858 33.4254 52.4437 33.5097C52.3985 33.3998 52.3534 33.2885 52.3082 33.1786C52.391 33.2072 52.4753 33.2313 52.5611 33.2508C52.9479 32.3644 53.1315 31.3997 53.0758 30.4304C53.0592 30.1415 52.6077 30.14 52.6243 30.4304C52.68 31.4147 52.4888 32.3975 52.0524 33.2825C51.9876 33.4179 52.0448 33.5654 52.1893 33.6136Z" fill="#180205"/>
<path d="M57.1439 35.217C57.329 34.9958 57.0115 34.6752 56.8249 34.898C56.1085 35.7498 54.9286 36.1411 53.8479 35.8597C53.5665 35.7859 53.4461 36.2224 53.7275 36.2946C54.9526 36.6137 56.3252 36.1893 57.1439 35.217Z" fill="#180205"/>
<path d="M63.0271 39.9925C60.4219 42.7016 56.1175 42.8235 56.1175 42.8235L55.9956 45.8154C62.2068 44.8552 63.0271 39.9925 63.0271 39.9925Z" fill="#180205"/>
<path d="M21.6735 74.0385C20.5838 74.3109 19.4355 74.2884 18.3519 73.9979C17.7905 73.8474 17.5497 74.7188 18.1126 74.8693C20.1489 75.4156 22.426 75.1086 24.1688 73.8895C25.7385 72.7924 26.777 71.0465 26.7183 69.0975C26.6852 68.0049 26.318 66.9649 25.6287 66.1146C25.4752 65.925 25.1501 65.9551 24.9905 66.1146C24.8039 66.3012 24.837 66.5631 24.9905 66.7527C25.9914 67.9868 26.0621 69.8485 25.3532 71.2362C24.6218 72.669 23.2146 73.6517 21.6735 74.0385Z" fill="#180205"/>
</g>
</svg>
