<svg width="31" height="26" viewBox="0 0 31 26" fill="none" xmlns="http://www.w3.org/2000/svg">
<path fill-rule="evenodd" clip-rule="evenodd" d="M20.7264 20.2264H29.0809V5.16428H27.702V17.2763C27.702 17.5821 27.4413 17.8299 27.1187 17.8299C23.9919 17.8299 21.5369 18.9776 19.7317 20.321C20.0528 20.2601 20.3845 20.2264 20.7264 20.2264ZM21.2716 18.0427L21.2673 18.0437L21.265 18.0457L21.2716 18.0427ZM27.702 3.50421H29.9553C30.4383 3.50421 30.8291 3.87571 30.8291 4.33362V21.0565C30.8291 21.5144 30.4383 21.8868 29.9553 21.8868H20.7264C18.2262 21.8868 16.1717 24.6658 16.1358 24.7143L16.1355 24.7148C16.1334 24.7174 16.1303 24.7196 16.1282 24.7224C16.092 24.7715 16.0498 24.8165 16.0032 24.8574L15.9993 24.8603C15.9907 24.8668 15.9825 24.8729 15.9743 24.8797C15.9293 24.9163 15.8801 24.9484 15.827 24.9761C15.8232 24.9777 15.8198 24.9796 15.816 24.9816L15.8156 24.9818C15.771 25.0041 15.7226 25.0238 15.673 25.0386C15.6643 25.0412 15.6556 25.0427 15.647 25.0441C15.643 25.0448 15.6391 25.0455 15.6351 25.0463C15.6257 25.0491 15.6158 25.0504 15.6064 25.0525C15.5428 25.0666 15.4782 25.075 15.4145 25.075C15.4116 25.075 15.4091 25.0745 15.4067 25.0741C15.4054 25.0739 15.404 25.0738 15.4027 25.0738C15.3465 25.0727 15.2904 25.0657 15.2349 25.0547C15.2283 25.0532 15.2217 25.0518 15.215 25.0505C15.205 25.0485 15.1948 25.0464 15.1845 25.0438C15.1751 25.0415 15.1651 25.0398 15.1554 25.037C15.1074 25.0229 15.0623 25.005 15.0192 24.9845C15.0136 24.9818 15.0083 24.9785 15.003 24.9753C14.9974 24.9718 14.9918 24.9684 14.986 24.9658C14.9417 24.9417 14.901 24.9147 14.8625 24.8847C14.8574 24.8805 14.8521 24.8766 14.8469 24.8727C14.8385 24.8663 14.8302 24.86 14.8225 24.8529C14.778 24.8137 14.7375 24.7708 14.7018 24.7235C14.7008 24.7219 14.6994 24.7206 14.6979 24.7193C14.6963 24.7179 14.6948 24.7166 14.6936 24.7148C14.664 24.6746 12.607 21.8868 10.1031 21.8868H0.874757C0.391677 21.8868 0 21.5144 0 21.0565V4.33362C0 3.87571 0.391677 3.50421 0.874757 3.50421H10.1654C12.762 3.50421 14.4974 4.98469 15.4145 6.05654C15.5303 5.92157 15.6603 5.78 15.8019 5.63594C16.5515 4.52303 17.8047 3.07004 19.722 1.91679C19.7264 1.9142 19.7309 1.91166 19.7354 1.90911C19.7399 1.90657 19.7444 1.90403 19.7488 1.90144C20.9919 1.15789 22.5175 0.54735 24.3661 0.233152L24.4063 0.218511L24.4189 0.223868C25.2541 0.0849781 26.147 0 27.1187 0C27.4413 0 27.702 0.24779 27.702 0.553598V3.50421ZM4.92093 9.89501C5.67757 9.15543 6.70381 8.73994 7.77387 8.73994C8.84393 8.73994 9.87016 9.15543 10.6268 9.89501C11.3835 10.6346 11.8085 11.6377 11.8085 12.6836H10.2955C10.028 12.6836 9.77146 12.7875 9.5823 12.9724C9.39314 13.1573 9.28687 13.408 9.28687 13.6695V16.1343C9.28687 16.3958 9.39314 16.6466 9.5823 16.8315C9.77146 17.0163 10.028 17.1202 10.2955 17.1202H11.8085C12.076 17.1202 12.3326 17.0163 12.5218 16.8315C12.7109 16.6466 12.8172 16.3958 12.8172 16.1343V12.6836C12.8172 9.961 10.5593 7.75403 7.77387 7.75403C4.98843 7.75403 2.73053 9.961 2.73053 12.6836V16.1343C2.73053 16.3958 2.8368 16.6466 3.02596 16.8315C3.21513 17.0163 3.47168 17.1202 3.7392 17.1202H5.2522C5.51972 17.1202 5.77627 17.0163 5.96544 16.8315C6.1546 16.6466 6.26087 16.3958 6.26087 16.1343V13.6695C6.26087 13.408 6.1546 13.1573 5.96544 12.9724C5.77627 12.7875 5.51972 12.6836 5.2522 12.6836H3.7392C3.7392 11.6377 4.16428 10.6346 4.92093 9.89501ZM3.7392 16.1343V13.6695H5.2522V16.1343H3.7392ZM10.2955 16.1343V13.6695H11.8085V16.1343H10.2955Z" fill="#3F51B5"/>
</svg>
