<svg width="92" height="88" viewBox="0 0 92 88" fill="none" xmlns="http://www.w3.org/2000/svg">
<mask id="mask0_213_2245" style="mask-type:alpha" maskUnits="userSpaceOnUse" x="0" y="0" width="92" height="88">
<rect width="92" height="88" rx="20" fill="#FF7F4D"/>
</mask>
<g mask="url(#mask0_213_2245)">
<path d="M113.44 63.4942H87.0212H60.6027V-2.39844H113.44V63.4942Z" fill="#B1CCFC"/>
<path d="M71.7763 14.8594V30.7501H74.1684V27.3055H84.8342V30.7501H87.2666V37.7652L88.4831 37.7428H94.2266V31.193H99.9729V25.1095H113.44V63.4944H88.4831H60.6027V28.6571L71.7763 14.8594Z" fill="#8CB6F4"/>
<path opacity="0.8" d="M93.3685 63.4942L113.44 40.2484V32.8643L88.9891 63.4942H93.3685Z" fill="url(#paint0_linear_213_2245)"/>
<path opacity="0.8" d="M60.6027 44.4756V49.0175L102.59 -2.39844H95.9684L60.6027 44.4756Z" fill="url(#paint1_linear_213_2245)"/>
<path opacity="0.8" d="M60.6027 15.5399V31.8579L90.8693 -2.39941H76.7809C72.5408 2.27553 66.5281 8.92383 60.6027 15.5399Z" fill="url(#paint2_linear_213_2245)"/>
<path d="M114.224 64.1481H60.2103V-3H114.224V64.1481ZM61.3868 62.8931H113.048V-1.74505H61.3868V62.8931Z" fill="white"/>
<path d="M87.9034 63.5201H87.2173H86.5311V-2.37305H87.9034V63.5201Z" fill="#F8FBFF"/>
<path d="M113.465 17.6045V18.3368V19.0686H60.7746V17.6045H113.465Z" fill="#F8FBFF"/>
<path d="M113.465 42.0791V42.8109V43.5432H60.7741V42.0791H113.465Z" fill="#F8FBFF"/>
<path d="M22.8842 86.2015H57.3891V53.7585C57.3891 45.3989 50.6123 38.6221 42.2526 38.6221H38.0206C29.661 38.6221 22.8842 45.3989 22.8842 53.7585V86.2015V86.2015Z" fill="#3838BA"/>
<path opacity="0.5" d="M57.3896 77.5583C56.9529 77.5404 56.514 77.5556 56.0764 77.6071C54.3059 77.8154 52.1104 78.1074 51.5425 78.3345C50.645 78.6937 38.4708 73.8131 36.0782 72.9295C35.8735 72.8538 35.7813 72.6182 35.8807 72.4238C36.7317 70.7564 42.709 58.9078 41.8061 53.4741C44.9122 53.0827 48.806 51.0511 48.806 51.0511L48.3348 40.4973C48.3348 40.4973 48.1749 40.2098 47.9246 39.7211C46.1729 39.0126 44.2587 38.6216 42.2531 38.6216H38.0211C37.0031 38.6216 36.0088 38.7228 35.0472 38.9145C35.3338 43.9598 36.4195 48.1345 37.6341 50.9427C34.2889 52.1985 31.0127 58.3896 29.1563 64.2684C26.7789 71.7968 24.9117 77.1458 26.581 79.1272C28.2502 81.1082 32.7227 81.5045 36.0903 81.7025C39.4583 81.9005 47.4883 81.7025 47.4883 81.7025C47.4883 81.7025 49.6623 81.9976 53.872 82.0483C55.0405 82.0621 56.2511 82.1338 57.3905 82.2292V77.5583H57.3896Z" fill="#003177"/>
<path d="M61.3209 37.0664C61.4481 37.3522 61.2322 41.7821 61.7778 44.3794C62.3233 46.9761 67.4268 49.4552 65.1342 54.3554C64.2787 56.1836 56.7579 54.8221 56.7579 54.8221L53.5063 45.6639L54.9758 39.983L61.3209 37.0664Z" fill="#003177"/>
<path d="M57.522 42.7788C57.522 42.7788 57.9444 47.5415 59.615 49.1938C61.2856 50.846 55.086 50.0676 55.086 50.0676L51.7794 43.602L57.522 42.7788Z" fill="#002756"/>
<path d="M66.3286 52.8039C66.2977 52.8039 66.2659 52.7967 66.2364 52.7815C66.1374 52.7304 66.0984 52.609 66.1495 52.5101C66.1566 52.4957 66.8916 51.0258 66.1495 49.5814C65.745 48.794 64.796 48.4402 63.5948 47.9923C62.5893 47.6174 61.449 47.1924 60.3732 46.401C57.9829 44.6431 57.8082 37.379 57.8019 37.0708C57.7997 36.9597 57.8879 36.8675 57.9994 36.8652C58.0008 36.8652 58.0021 36.8652 58.0035 36.8652C58.1127 36.8652 58.2028 36.9526 58.205 37.0628C58.2064 37.1362 58.381 44.4357 60.6124 46.0767C61.6434 46.835 62.755 47.2493 63.7359 47.6152C64.9684 48.0747 66.0326 48.4715 66.5082 49.3978C67.3475 51.0307 66.5427 52.6283 66.5082 52.6955C66.4719 52.764 66.4012 52.8039 66.3286 52.8039Z" fill="#002756"/>
<path d="M48.616 23.974C48.616 23.974 48.6814 23.424 47.2638 23.2417C43.5491 22.7651 36.934 25.9643 36.9653 36.4702C36.9882 44.1128 39.9182 49.6544 41.668 52.8625C43.4179 56.0707 51.3588 51.3196 51.3588 51.3196L50.8876 40.7658C50.8876 40.7658 47.4501 34.5815 47.4501 30.7902C47.4501 26.9989 48.616 23.974 48.616 23.974Z" fill="#002756"/>
<path d="M61.1704 58.492C61.1704 58.492 59.0009 51.8146 60.1555 50.5927C61.3102 49.3709 65.1211 48.2732 69.0405 55.0997C72.9604 61.9263 77.4418 73.2957 77.4418 73.2957L76.7077 82.4333C76.7077 82.4333 69.6138 76.8429 65.8328 69.2406C62.0518 61.6383 61.1704 58.492 61.1704 58.492Z" fill="#9952BD"/>
<path d="M62.5602 51.5167C64.6074 53.8376 67.3511 66.8413 69.2004 69.1675C71.0497 71.4938 76.5017 78.079 76.5017 78.079L76.3588 82.147C74.8907 80.9203 69.1157 75.84 65.8337 69.241C62.0527 61.6387 61.1713 58.4924 61.1713 58.4924C61.1713 58.4924 59.412 53.0766 59.9065 51.1082C60.5864 50.5846 61.5278 50.3468 62.5602 51.5167Z" fill="#543E8B"/>
<path d="M61.0648 49.4433C61.7698 49.6354 62.3274 50.1738 62.5469 50.8711C63.2751 53.1889 64.8364 58.6929 64.9479 63.5994C65.0836 69.5682 65.6771 84.0141 65.6771 84.0141L37.9046 86.3341L34.735 66.1263L39.4301 53.2462C39.8054 51.3015 43.1363 50.2916 45.8459 49.4549C47.3522 48.99 47.7414 47.2675 48.3249 45.9552C49.5678 43.1587 55.7615 47.9966 55.7615 47.9966L61.0648 49.4433Z" fill="#9952BD"/>
<path d="M58.5588 79.2022C60.976 79.2022 63.0846 77.5607 63.6776 75.2174L63.9316 74.2133C63.9907 74.0825 63.8447 73.9526 63.7233 74.0287C63.1455 74.3893 61.896 74.9648 59.3243 75.4888C54.5866 76.454 45.1538 77.2611 42.6596 70.0892C41.0746 65.5325 48.603 58.7969 44.7024 51.0701C44.6007 50.8685 44.1421 50.5089 43.6503 50.1636C41.5923 50.8864 39.7068 51.8122 39.43 53.2468L34.7349 66.1268L40.2823 79.2026H58.5588V79.2022Z" fill="#543E8B"/>
<path d="M53.0485 67.8283H47.2463C46.8754 67.8283 46.5749 67.5278 46.5749 67.1569V66.4341C46.5749 66.0632 46.8754 65.7627 47.2463 65.7627H53.0485C53.4194 65.7627 53.7199 66.0632 53.7199 66.4341V67.1569C53.7199 67.5273 53.4194 67.8283 53.0485 67.8283Z" fill="#543E8B"/>
<path d="M53.0486 67.4152H47.2464C46.8755 67.4152 46.575 67.1147 46.575 66.7439V66.021C46.575 65.6501 46.8755 65.3496 47.2464 65.3496H53.0486C53.4195 65.3496 53.72 65.6501 53.72 66.021V66.7439C53.72 67.1147 53.4195 67.4152 53.0486 67.4152Z" fill="#E5C3FF"/>
<path d="M48.6159 47.7047C48.6159 47.7047 47.8872 46.9756 48.1788 45.3718C48.4704 43.7679 55.0855 45.1205 55.0855 45.1205C55.0855 45.1205 57.4275 46.0548 57.5108 47.7047C57.5941 49.3547 57.1713 49.5881 56.7579 49.8859C56.3445 50.1838 52.8157 50.3405 52.8157 50.3405L48.6159 47.7047Z" fill="#543E8B"/>
<path d="M47.0426 26.5273C47.1505 26.1901 48.616 23.974 48.616 23.974C48.616 23.974 48.6814 23.424 47.2638 23.2417C43.5491 22.7651 36.934 25.9643 36.9653 36.4702C36.9882 44.1128 39.9182 49.6544 41.668 52.8625C41.857 53.2087 43.1089 51.8445 42.7429 50.7127C36.9653 32.8424 46.3676 26.1995 47.0426 26.5273Z" fill="#003177"/>
<path d="M56.8413 44.8744C56.8413 44.8744 56.4449 48.487 57.3366 49.5534C58.2283 50.6198 55.1572 53.8024 55.1572 53.8024L47.7278 48.9465C47.7278 48.9465 48.9165 47.0538 48.7185 45.0728C48.5125 43.0148 48.1242 40.5161 48.1242 40.5161L56.8413 44.8744Z" fill="#F6AD83"/>
<path d="M48.7185 45.0723C48.5125 43.0143 48.1241 40.5156 48.1241 40.5156L56.8412 44.8744C56.8412 44.8744 56.6831 46.3206 56.7924 47.6535C55.9427 48.0346 55.025 48.2424 54.0675 48.2424C52.0126 48.2424 50.1423 47.2826 48.7346 45.7106C48.7427 45.5005 48.74 45.2873 48.7185 45.0723Z" fill="#F4A076"/>
<path d="M40.929 53.9369C40.8583 53.9369 40.7893 53.8993 40.7526 53.833L40.7324 53.7963C40.0816 52.6287 37.8834 48.4321 36.9205 43.4588C36.3217 40.3667 36.3074 37.533 36.8771 35.0374C37.5852 31.9376 39.2011 29.3467 41.6797 27.3366C43.0524 26.2232 44.0821 25.752 44.74 25.9356C45.1126 26.0395 45.2206 26.3132 45.2313 26.3441C45.269 26.4489 45.2143 26.5645 45.11 26.6021C45.0065 26.6388 44.8932 26.5868 44.8538 26.4852C44.8488 26.4744 44.7951 26.3642 44.6151 26.3199C44.3168 26.2465 43.5715 26.3217 41.9332 27.6501C37.5381 31.2143 35.9844 36.5073 37.3155 43.3827C38.2668 48.2973 40.4404 52.4464 41.0835 53.6006L41.1046 53.6382C41.1583 53.7358 41.1234 53.8581 41.0258 53.9123C40.9958 53.9289 40.9622 53.9369 40.929 53.9369Z" fill="#002756"/>
<path d="M43.7825 31.2483C44.1054 31.2483 44.4126 31.3128 44.6939 31.4283C45.7715 26.7059 49.3075 23.2402 53.5063 23.2402C58.5606 23.2402 62.6583 28.2596 62.6583 34.4511C62.6583 40.6425 58.5611 45.6619 53.5063 45.6619C48.8699 45.6619 45.041 41.4371 44.4395 35.9595C44.2303 36.0191 44.0109 36.0527 43.7829 36.0527C42.4563 36.0527 41.3805 34.9773 41.3805 33.6503C41.38 32.3241 42.4558 31.2483 43.7825 31.2483Z" fill="#F6AD83"/>
<path d="M61.8856 28.8945C60.7189 26.7071 59.6919 25.6147 58.8235 25.1032C57.9546 24.5918 54.9274 22.7049 52.1362 23.2481C49.345 23.791 48.1783 24.5201 48.1783 24.5201C48.1783 24.5201 48.1671 24.6334 48.2571 24.9783C47.7645 25.1368 44.6015 26.2856 43.6982 29.8821C43.442 30.9015 43.5669 32.0292 43.7488 32.8851C43.9051 33.6205 44.6947 34.029 45.3862 33.7347L45.8225 33.5489C45.9909 33.4772 46.0607 33.2761 45.9734 33.1153C45.5278 32.2984 45.5112 31.3153 45.9282 30.4836L46.1964 29.9488C46.2027 29.9363 46.222 29.9421 46.2197 29.956L46.1449 30.515C46.0451 31.262 46.1893 32.0216 46.5565 32.6795L46.6219 32.7969C46.7375 33.0043 46.9905 33.092 47.21 33.0007L48.5787 32.4301C49.2738 32.1403 49.7284 31.4653 49.7365 30.7125C49.7427 30.1105 49.7391 29.3442 49.7047 28.5362C50.2005 29.6429 50.6389 30.6175 50.8253 31.0305C50.8848 31.1621 51.0062 31.254 51.1491 31.2759L57.0302 32.1757C57.2975 32.2164 57.5345 32.0024 57.521 31.7323C57.4995 31.3086 57.4028 30.6592 57.0727 29.9161C56.825 29.359 56.2576 28.401 55.9566 27.9038C55.9261 27.8537 55.9915 27.8008 56.0336 27.8416C56.4842 28.2814 57.3764 29.2107 57.8018 30.0621C58.2802 31.0193 59.0487 32.4225 59.0487 32.4225L59.2601 32.3951C59.2601 32.3951 59.2189 31.3552 59.1141 30.9369C59.0084 30.5141 58.6873 29.8463 58.5189 29.5113C58.4947 29.4629 58.5534 29.4163 58.595 29.4508C58.8956 29.6989 59.4841 30.2189 59.6977 30.6453C59.9893 31.2284 60.3274 32.5407 60.3274 32.5407C60.3274 32.5407 61.8847 32.9783 62.1767 33.5614C62.4692 34.1441 62.6067 30.2462 61.8856 28.8945Z" fill="#F4A076"/>
<path d="M48.1175 23.1678C55.9106 18.5995 62.235 25.7651 62.644 29.5899C62.8482 31.5024 60.7051 26.797 56.9281 24.9571C53.1512 23.1172 46.777 23.9539 48.1175 23.1678Z" fill="#002756"/>
<path d="M56.1188 38.3479C56.1081 38.3313 56.0973 38.3156 56.0852 38.2999C56.1031 38.3232 56.1211 38.3461 56.139 38.3694C56.1081 38.3313 56.074 38.2973 56.0355 38.2668C56.0588 38.2847 56.0816 38.3026 56.1049 38.3205C56.0615 38.2879 56.0158 38.2614 55.9661 38.2404C55.9934 38.252 56.0207 38.2637 56.0481 38.2749C56.0024 38.2565 55.9558 38.244 55.9074 38.2363C55.9379 38.2404 55.9683 38.2444 55.9988 38.2484C55.9495 38.2422 55.9007 38.2417 55.851 38.2471C55.8814 38.2431 55.9119 38.239 55.9424 38.235C55.8873 38.2426 55.8349 38.2569 55.7838 38.2784C55.8111 38.2668 55.8384 38.2552 55.8658 38.244C55.8196 38.2646 55.7771 38.2892 55.7368 38.3197C55.7601 38.3017 55.7829 38.2838 55.8062 38.2659C55.7668 38.2968 55.7314 38.3317 55.7001 38.3712C55.718 38.3479 55.7359 38.325 55.7538 38.3017C55.7448 38.3138 55.7363 38.3259 55.7278 38.3385C55.6777 38.4128 55.6114 38.4719 55.5227 38.4961C55.4407 38.519 55.331 38.5087 55.2584 38.4616C55.1102 38.3658 55.0282 38.1517 55.1353 37.9923C55.3126 37.728 55.6096 37.5497 55.9338 37.5574C56.2527 37.5645 56.5412 37.7352 56.7123 38.0021C56.8094 38.1535 56.7481 38.3877 56.5891 38.4715C56.418 38.5611 56.2227 38.5096 56.1188 38.3479Z" fill="black"/>
<path d="M56.126 42.2651C56.2268 42.2651 56.328 42.262 56.4292 42.2557L56.4906 42.2521C56.6796 42.2409 56.8238 42.0783 56.8126 41.8889C56.8014 41.6999 56.65 41.5566 56.4493 41.5669L56.3875 41.5704C55.4327 41.6296 54.4679 41.3644 53.6752 40.8252C53.5189 40.7186 53.3052 40.7589 53.1982 40.9156C53.0916 41.0724 53.1319 41.2856 53.2891 41.3926C54.1226 41.9601 55.1196 42.2651 56.126 42.2651Z" fill="black"/>
<path d="M59.9956 40.401C60.6274 40.401 61.1395 39.8889 61.1395 39.2572C61.1395 38.6254 60.6274 38.1133 59.9956 38.1133C59.3639 38.1133 58.8517 38.6254 58.8517 39.2572C58.8517 39.8889 59.3639 40.401 59.9956 40.401Z" fill="#F28D77"/>
<path d="M50.635 40.3815C51.2667 40.3815 51.7788 39.8694 51.7788 39.2376C51.7788 38.6059 51.2667 38.0938 50.635 38.0938C50.0032 38.0938 49.4911 38.6059 49.4911 39.2376C49.4911 39.8694 50.0032 40.3815 50.635 40.3815Z" fill="#F28D77"/>
<path d="M59.039 37.0613C59.481 37.0739 59.8496 36.7259 59.8626 36.2838L59.8953 35.1404C59.9079 34.6983 59.5599 34.3297 59.1178 34.3167C58.6757 34.3042 58.3071 34.6522 58.2942 35.0942L58.2615 36.2377C58.2485 36.6802 58.5969 37.0488 59.039 37.0613Z" fill="black"/>
<path d="M59.8729 35.1871C60.3069 35.1996 60.7427 35.1047 61.1337 34.9054C61.3026 34.8194 61.3697 34.6125 61.2837 34.4436C61.1973 34.2748 60.9908 34.208 60.822 34.2936C60.3634 34.5274 59.821 34.5663 59.3337 34.4006C59.1541 34.3397 58.9593 34.4356 58.8983 34.6152C58.8374 34.7948 58.9337 34.9896 59.1129 35.0505C59.3592 35.1347 59.6154 35.1799 59.8729 35.1871Z" fill="black"/>
<path d="M52.2805 36.8841C51.8384 36.8715 51.4904 36.5025 51.503 36.0604L51.5356 34.917C51.5482 34.4749 51.9172 34.1269 52.3593 34.1395C52.8014 34.152 53.1494 34.5211 53.1368 34.9631L53.1041 36.1066C53.0916 36.5486 52.7225 36.8966 52.2805 36.8841Z" fill="black"/>
<path d="M51.5558 34.9648C51.8129 34.9725 52.0713 34.942 52.3221 34.8726C52.5049 34.822 52.6119 34.633 52.5613 34.4502C52.5107 34.2675 52.3217 34.1609 52.139 34.2111C51.6432 34.3481 51.1039 34.2782 50.6596 34.0185C50.4966 33.9231 50.2861 33.9782 50.1902 34.1416C50.0944 34.3051 50.1499 34.5156 50.3134 34.611C50.6923 34.8323 51.1218 34.9523 51.5558 34.9648Z" fill="black"/>
<path d="M61.4244 33.6967C61.5251 33.6994 61.6264 33.6582 61.6967 33.5754C61.8189 33.4307 61.801 33.2139 61.6564 33.0917C60.7503 32.3253 59.6875 31.9979 58.4043 32.0898C58.2153 32.1032 58.0729 32.2676 58.0863 32.4566C58.1002 32.6456 58.2641 32.7867 58.4531 32.7746C59.5634 32.6953 60.4404 32.9627 61.213 33.6161C61.2743 33.6681 61.3496 33.6945 61.4244 33.6967Z" fill="black"/>
<path d="M49.8002 33.6082C49.6994 33.6056 49.6009 33.5581 49.5355 33.4712C49.4217 33.3198 49.4522 33.1044 49.6036 32.9906C50.5522 32.278 51.632 32.012 52.908 32.1773C53.0961 32.2019 53.2287 32.3739 53.204 32.562C53.1794 32.7497 53.0079 32.8813 52.8193 32.858C51.7157 32.7147 50.8249 32.9315 50.0156 33.5393C49.9516 33.5881 49.8754 33.6105 49.8002 33.6082Z" fill="black"/>
<path d="M48.762 24.6655C48.762 24.6655 50.0662 26.4248 50.1433 28.2427C50.1773 29.0512 50.1813 29.8175 50.1751 30.4199C50.167 31.1727 49.712 31.8477 49.0173 32.1375L47.6486 32.7081C47.4291 32.7994 47.1765 32.7121 47.0605 32.5043L46.9951 32.3869C46.6279 31.7286 46.4832 30.9694 46.5835 30.2224L46.6583 29.6634C46.6601 29.6495 46.6413 29.6437 46.635 29.6562L46.3668 30.191C45.9493 31.0227 45.9664 32.0058 46.412 32.8227C46.4998 32.9835 46.4299 33.1846 46.2611 33.2563L45.8248 33.4421C45.1333 33.7364 44.3437 33.3279 44.1874 32.5925C44.0055 31.7366 43.8806 30.6089 44.1368 29.5895C45.1167 25.6862 48.762 24.6655 48.762 24.6655Z" fill="#003177"/>
<path d="M48.6164 24.2282C48.6164 24.2282 48.5676 24.7092 49.4669 26.7287C50.2001 28.3751 50.9951 30.141 51.2638 30.7376C51.3233 30.8693 51.4447 30.9611 51.5876 30.983L57.4687 31.8828C57.7361 31.9236 57.973 31.7095 57.9596 31.4394C57.9381 31.0157 57.8413 30.3663 57.5112 29.6228C57.2635 29.0657 56.6961 28.1077 56.3951 27.6105C56.3647 27.5604 56.4301 27.5075 56.4722 27.5483C56.9227 27.9881 57.8149 28.9174 58.2404 29.7688C58.7187 30.726 59.4873 32.1292 59.4873 32.1292L59.6987 32.1018C59.6987 32.1018 59.6575 31.0619 59.5526 30.6436C59.447 30.2208 59.1258 29.553 58.9574 29.218C58.9332 29.1696 58.9919 29.123 59.0336 29.1575C59.3341 29.4056 59.9226 29.9256 60.1362 30.352C60.4278 30.9351 60.766 32.2474 60.766 32.2474C60.766 32.2474 62.3232 32.685 62.6152 33.2681C62.9068 33.8513 63.1782 29.8736 62.3237 28.6021C60.7476 26.2584 59.601 25.1575 58.7321 24.646C57.8633 24.1345 55.365 22.4134 52.5738 22.9562C49.7826 23.499 48.6164 24.2282 48.6164 24.2282Z" fill="#003177"/>
<path d="M45.9368 33.3944C45.8199 33.2954 45.6071 33.1458 45.2439 32.9218C43.8483 32.0615 44.8928 29.2139 44.8928 29.2139L44.1381 29.5834C44.1376 29.5856 44.1367 29.5874 44.1363 29.5896C43.8801 30.609 44.0051 31.7368 44.1869 32.5927C44.3432 33.3281 45.1328 33.7365 45.8243 33.4423L45.9368 33.3944Z" fill="#002756"/>
<path d="M52.2267 31.081C52.4394 30.798 52.1483 30.0205 51.3587 28.4905C50.8718 27.5477 50.1118 27.1747 49.5994 27.0269C50.2936 28.5832 51.0111 30.1772 51.2637 30.738C51.3233 30.8696 51.4447 30.9615 51.5876 30.9834L52.2267 31.081Z" fill="#002756"/>
<path d="M59.6158 32.113C59.6154 32.1 59.6158 32.0879 59.6149 32.0744C59.5567 31.3068 58.867 30.0205 58.1952 28.8112C57.5233 27.6019 56.4202 27.5227 56.4726 27.5486C56.6088 27.6172 56.7584 27.7779 56.9151 27.9996C57.3702 28.4838 57.93 29.1467 58.2408 29.7692C58.7192 30.7263 59.4877 32.1295 59.4877 32.1295L59.6158 32.113Z" fill="#002756"/>
<path d="M60.7659 32.2483C60.7659 32.2483 61.1583 32.3585 61.586 32.5421C61.4673 32.2806 61.3504 31.714 61.0947 31.2119C60.0762 29.2144 59.0004 29.1306 59.034 29.1584C59.3345 29.4065 59.923 29.9265 60.1366 30.3529C60.4273 30.936 60.7659 32.2483 60.7659 32.2483Z" fill="#002756"/>
<path d="M46.7739 29.4824C46.7739 29.4824 46.7241 29.5469 46.6552 29.6535C46.6574 29.6557 46.6588 29.6589 46.6583 29.6629L46.5835 30.2219C46.4836 30.9689 46.6278 31.7285 46.9951 32.3865L47.0605 32.5038C47.176 32.7112 47.4291 32.799 47.6486 32.7076L48.2326 32.4639C48.1206 32.3448 47.7063 32.3251 47.3113 31.7666C46.7326 30.9479 46.7739 29.7511 46.7739 29.4824Z" fill="#002756"/>
<path d="M46.3972 30.1287L46.5423 29.8394C46.494 29.9258 46.4433 30.0234 46.3972 30.1287Z" fill="#002756"/>
<path d="M52.3921 43.0546L51.0556 43.0618C50.7179 43.0635 50.4219 43.2333 50.2494 43.4886C46.4111 43.2826 43.3503 40.4157 43.3315 36.9016C43.3302 36.6746 43.1371 36.5165 42.8984 36.5505C42.6606 36.5837 42.4685 36.7946 42.4698 37.0221C42.4908 40.9334 45.8929 44.1223 50.1469 44.3225C50.2812 44.6902 50.6422 44.9527 51.0659 44.9505L52.4024 44.9433C52.9385 44.9406 53.3707 44.5151 53.368 43.9938C53.3649 43.472 52.9277 43.0519 52.3921 43.0546Z" fill="#7A6CF2"/>
<path d="M43.6584 35.3468C43.6584 28.9242 48.2935 23.7176 54.0116 23.7176C56.4651 23.7176 58.7179 24.6783 60.4924 26.2808C58.5934 23.7342 55.7422 22.1138 52.5533 22.1138C46.8357 22.1133 41.8024 27.6285 41.8024 34.0511C41.8024 37.7174 43.6584 38.1872 43.6584 35.3468Z" fill="#7A6CF2"/>
<path d="M54.0116 23.7174C56.4651 23.7174 58.7179 24.6781 60.4924 26.2806C60.203 25.8928 59.8913 25.5264 59.5599 25.1838C57.9059 23.9248 55.9115 23.1885 53.7626 23.1885C48.0445 23.1885 43.4094 28.3951 43.4094 34.8176C43.4094 35.4818 43.4578 36.0497 43.5362 36.52C43.6119 36.2396 43.6584 35.8513 43.6584 35.347C43.6584 28.924 48.294 23.7174 54.0116 23.7174Z" fill="#554EDD"/>
<path d="M43.2057 42.1776C41.54 42.3738 40.0302 41.1825 39.8345 39.5163L39.4439 36.1985C39.2478 34.5328 40.4391 33.023 42.1052 32.8273C43.7709 32.6311 45.2807 33.8225 45.4764 35.4886L45.8669 38.8065C46.0627 40.4721 44.8713 41.9815 43.2057 42.1776Z" fill="#554EDD"/>
<path d="M52.4019 44.4053L51.0655 44.4124C50.6418 44.4147 50.2808 44.1522 50.1464 43.7845C46.0475 43.5915 42.7408 40.6238 42.4864 36.9087C42.4761 36.9454 42.4694 36.983 42.4694 37.0211C42.4904 40.9324 45.8925 44.1213 50.1464 44.3215C50.2808 44.6892 50.6418 44.9517 51.0655 44.9494L52.4019 44.9423C52.9381 44.9396 53.3703 44.5141 53.3676 43.9928C53.3671 43.9014 53.3523 43.8132 53.3273 43.7299C53.2086 44.1186 52.84 44.403 52.4019 44.4053Z" fill="#554EDD"/>
<path d="M45.8665 38.807L45.476 35.4891C45.3282 34.2333 44.4338 33.2475 43.289 32.9224C43.8148 33.398 44.1776 34.0582 44.2667 34.8173L44.6572 38.1352C44.8534 39.8009 43.6621 41.3107 41.996 41.5064C41.5861 41.5548 41.1857 41.5185 40.8118 41.4123C41.4392 41.9802 42.2987 42.2848 43.2052 42.1782C44.8713 41.982 46.0627 40.4727 45.8665 38.807Z" fill="#3838BA"/>
<path d="M39.5715 73.1979C39.3668 73.1222 39.2745 72.8867 39.374 72.6923C40.3889 70.7041 48.6961 54.2348 43.9284 51.4347C39.7309 48.9691 35.0264 57.0085 32.6486 64.5369C30.2709 72.0652 28.4041 77.4142 30.0733 79.3957C31.7426 81.3766 36.2151 81.773 39.5827 81.971C42.9507 82.1689 50.9807 81.971 50.9807 81.971C50.9807 81.971 53.1547 82.2661 57.3643 82.3167C61.5735 82.3673 66.3286 83.1596 66.3286 83.1596L65.3379 79.1973L64.0941 78.6119C62.6842 77.9486 61.1175 77.6937 59.5697 77.8756C57.7992 78.0838 55.6037 78.3758 55.0358 78.6029C54.1387 78.9617 41.9645 74.0816 39.5715 73.1979Z" fill="#9952BD"/>
<path d="M30.0735 79.3957C28.4042 77.4147 30.2714 72.0652 32.6488 64.5369C35.0261 57.0085 39.7306 48.9691 43.9286 51.4347C44.2376 51.616 44.4906 51.8566 44.6958 52.1454C43.6894 51.8866 42.2307 51.8691 40.9699 53.2445C38.7905 55.6219 37.02 58.7619 35.1318 63.8288C33.2435 68.8956 31.4605 74.2446 32.2528 76.0276C33.0451 77.8106 33.4267 78.6947 44.1395 80.3859C47.9035 80.9803 54.0452 80.5839 54.2692 82.2263C52.0943 82.1219 50.9808 81.971 50.9808 81.971C50.9808 81.971 42.9508 82.1689 39.5828 81.971C36.2152 81.773 31.7427 81.3771 30.0735 79.3957Z" fill="#543E8B"/>
<path d="M48.5255 82.0566L49.9546 77.0923C52.3176 77.92 53.6339 77.9092 54.5001 77.9092C55.1688 77.9092 57.5206 77.7744 59.4559 77.5473C61.1475 77.3485 62.8602 77.6271 64.4014 78.3522L65.7611 78.9922L66.8441 83.3232C66.8441 83.3232 61.6469 82.457 57.0459 82.4019C52.4448 82.3468 50.0684 82.0239 50.0684 82.0239C50.0684 82.0239 49.4714 82.0387 48.5255 82.0566Z" fill="#F6AD83"/>
<path d="M48.8865 80.8033C49.8741 80.9068 52.3348 80.7245 54.9333 80.2914C56.6854 79.9994 58.5638 79.2084 61.0796 79.6415C62.4133 79.8713 64.496 80.265 66.1589 80.5848L66.8438 83.3231C66.8438 83.3231 61.6466 82.4569 57.0455 82.4018C52.4445 82.3467 50.068 82.0238 50.068 82.0238C50.068 82.0238 49.4719 82.0386 48.526 82.0565L48.8865 80.8033Z" fill="#F4A076"/>
<path d="M52.9913 51.201C53.7644 51.5844 54.5638 51.8504 54.7013 52.056C54.7013 52.056 54.8357 51.9216 54.8357 51.6529L54.0197 49.4888L52.9913 51.201Z" fill="#543E8B"/>
<path d="M48.1789 45.3721C48.1789 45.3721 48.3473 46.9544 50.6579 48.4342C51.5496 49.0053 54.0196 49.489 54.0196 49.489C54.0196 49.489 52.9035 51.4032 52.5533 52.8086C52.2031 54.2141 52.2617 55.5792 52.2617 55.5792L48.2308 50.8944C47.5536 50.1052 47.2965 49.0388 47.5397 48.028L48.1789 45.3721Z" fill="#E5C3FF"/>
<path d="M55.7686 49.4905C55.1546 49.1949 54.8617 50.9877 54.7014 52.0559C55.0865 51.8105 55.8708 51.1387 56.7249 50.4982C56.5905 50.1936 56.3128 49.7525 55.7686 49.4905Z" fill="#543E8B"/>
<path d="M57.3653 46.9761C57.3653 46.9761 57.2784 48.0214 56.6362 48.7259C55.9939 49.43 55.4726 49.4891 55.4726 49.4891C55.4726 49.4891 55.8775 49.9437 56.1108 50.9389C56.3442 51.9341 56.1986 54.5586 56.1986 54.5586L57.8441 51.0477C58.386 48.8719 57.3653 46.9761 57.3653 46.9761Z" fill="#E5C3FF"/>
<path d="M102.746 91.694H1.01377C-0.650544 91.694 -2 90.3446 -2 88.6803V86.3312C-2 84.6668 -0.650544 83.3174 1.01377 83.3174H102.746C104.41 83.3174 105.76 84.6668 105.76 86.3312V88.6803C105.759 90.3446 104.41 91.694 102.746 91.694Z" fill="#6E92F9"/>
<path d="M102.88 89.276H1.14813C-0.516181 89.276 -1.86564 87.9265 -1.86564 86.2622V85.4395C-1.95297 85.7216 -2 86.0212 -2 86.3316V88.6807C-2 90.3451 -0.650544 91.6945 1.01377 91.6945H102.746C104.41 91.6945 105.759 90.3451 105.759 88.6807V87.1544C105.379 88.3833 104.234 89.276 102.88 89.276Z" fill="#554EDD"/>
<path d="M46.7861 84.5863H80.4656C81.1222 84.5863 81.6543 84.0542 81.6543 83.3977C81.6543 82.7411 81.1222 82.209 80.4656 82.209H46.7861C46.1295 82.209 45.5974 82.7411 45.5974 83.3977C45.5974 84.0542 46.1295 84.5863 46.7861 84.5863Z" fill="#002756"/>
<path d="M58.1067 84.5858H90.1129C91.341 84.5858 92.4764 83.5902 92.6488 82.3621L95.2259 64.026C95.3983 62.7979 94.5429 61.8022 93.3148 61.8022H61.3085C60.0805 61.8022 58.9451 62.7979 58.7727 64.026L56.1956 82.3621C56.0231 83.5906 56.8786 84.5858 58.1067 84.5858Z" fill="#003177"/>
<path d="M57.6843 71.7725L56.9363 77.0933L74.2997 61.8032H68.8687L57.6843 71.7725Z" fill="#59699B"/>
<path d="M56.1908 82.9198C56.2701 83.5916 56.67 84.1411 57.2603 84.409L83.8307 61.8032H81.8618L56.1908 82.9198Z" fill="#59699B"/>
<path d="M13.2203 86.3776C18.7705 86.3776 23.2698 85.8292 23.2698 85.1527C23.2698 84.4762 18.7705 83.9277 13.2203 83.9277C7.67014 83.9277 3.17084 84.4762 3.17084 85.1527C3.17084 85.8292 7.67014 86.3776 13.2203 86.3776Z" fill="#554EDD"/>
<path d="M14.3235 70.8842C14.3235 70.8842 16.4124 64.7783 18.1797 66.2245C19.947 67.6707 18.3745 69.6759 17.2329 70.521C16.0908 71.3662 13.8416 72.3304 14.3235 70.8842Z" fill="#A9CA5A"/>
<path d="M10.7198 73.7449C10.3781 73.147 9.33366 69.4328 7.79386 68.971C6.8569 68.6902 6.03952 68.7663 5.61986 69.2738C5.34934 69.6007 5.24364 70.1059 5.37711 70.81C6.25361 75.4312 12.5678 76.979 10.7198 73.7449Z" fill="#A9CA5A"/>
<path d="M10.7198 73.7445C10.4735 73.3137 9.86261 71.2655 8.96461 69.9814C8.9364 70.3062 8.91759 70.6497 8.90908 71.0138C8.86787 72.7744 8.98791 74.1687 9.18721 75.2655C10.5859 75.7591 11.6192 75.3184 10.7198 73.7445Z" fill="#14966A"/>
<path d="M16.2278 71.1382C16.286 69.9881 16.2493 68.5544 15.9645 67.3823C15.0275 68.8258 14.3234 70.8843 14.3234 70.8843C13.962 71.9686 15.1363 71.6981 16.2278 71.1382Z" fill="#14966A"/>
<path d="M11.9278 79.1529C11.6232 79.0566 9.81513 77.3533 9.95845 71.2272C10.1022 65.1012 13.155 64.6192 14.4404 66.0654C15.7258 67.5116 15.5547 71.4373 15.3191 72.9292C15.0835 74.421 15.1995 80.1893 11.9278 79.1529Z" fill="#A9CA5A"/>
<path opacity="0.5" d="M14.9119 76.3494C15.1816 75.0062 15.2178 73.5712 15.3195 72.929C15.5555 71.4371 15.7262 67.5115 14.4408 66.0653C14.0838 65.6635 13.5902 65.4109 13.0609 65.3867C13.5589 66.3425 14.0923 68.0095 14.1492 70.8092C14.2101 73.7902 13.0774 77.1538 13.0774 77.1538L14.9119 76.3494Z" fill="#14966A"/>
<path opacity="0.5" d="M10.7396 67.1548C10.3034 68.0765 10.0015 69.4009 9.95894 71.2278C9.89041 74.1457 10.2648 76.0595 10.7087 77.2746L11.6273 76.8406C11.6273 76.8406 11.2985 76.5119 10.8851 72.1338C10.6679 69.8273 10.6796 68.1889 10.7396 67.1548Z" fill="#14966A"/>
<path d="M15.1211 85.378H10.8429C9.43571 85.378 8.24749 84.3327 8.06789 82.9366L7.4234 77.9204H18.5411L17.8966 82.9366C17.7165 84.3327 16.5283 85.378 15.1211 85.378Z" fill="#9952BD"/>
<path d="M17.3622 77.9209L16.8212 82.1309C16.6416 83.527 15.4534 84.5723 14.0461 84.5723H9.76801C9.38105 84.5723 9.01244 84.4908 8.67474 84.3475C9.1907 84.9799 9.97448 85.3785 10.8429 85.3785H15.121C16.5283 85.3785 17.7165 84.3332 17.8961 82.9371L18.5406 77.9209H17.3622Z" fill="#543E8B"/>
<path d="M19.4928 78.3997H6.66248C6.2885 78.3997 5.98529 78.0965 5.98529 77.7225V76.5844C5.98529 76.2104 6.2885 75.9072 6.66248 75.9072H19.4928C19.8668 75.9072 20.17 76.2104 20.17 76.5844V77.7225C20.17 78.0969 19.8668 78.3997 19.4928 78.3997Z" fill="#E5C3FF"/>
<path opacity="0.5" d="M19.4928 75.9082H19.4023V76.9553C19.4023 77.3293 19.0991 77.6325 18.7252 77.6325H5.98572V77.723C5.98572 78.097 6.28893 78.4002 6.66291 78.4002H19.4933C19.8672 78.4002 20.1705 78.097 20.1705 77.723V76.5849C20.17 76.2114 19.8668 75.9082 19.4928 75.9082Z" fill="#9952BD"/>
<path d="M5.98036 69.9793C6.16803 70.0116 6.35524 70.0443 6.5429 70.0765C6.60605 70.0873 6.67905 70.0595 6.69473 69.9905C6.70817 69.9305 6.67637 69.8503 6.60874 69.8387C6.42108 69.8064 6.23386 69.7737 6.0462 69.7415C5.98305 69.7308 5.91005 69.7585 5.89437 69.8275C5.88049 69.8875 5.91229 69.9677 5.98036 69.9793Z" fill="#14966A"/>
<path d="M7.23303 69.3693C7.23303 69.5319 7.2599 69.6963 7.3141 69.8499C7.3356 69.9104 7.39919 69.9574 7.46593 69.9359C7.52594 69.9166 7.57521 69.8495 7.55192 69.7841C7.52684 69.7138 7.50758 69.6412 7.49459 69.5677C7.4928 69.5579 7.49146 69.5485 7.48967 69.5386C7.48832 69.5301 7.48787 69.5037 7.48922 69.5377C7.48832 69.5194 7.48519 69.5015 7.48339 69.4831C7.48026 69.445 7.47892 69.407 7.47892 69.3689C7.47892 69.3044 7.42204 69.2426 7.35575 69.2457C7.28946 69.2493 7.23303 69.3004 7.23303 69.3693Z" fill="#14966A"/>
<path d="M12.058 65.9709C12.058 66.1335 12.0849 66.2978 12.1391 66.4515C12.1606 66.5119 12.2242 66.559 12.2909 66.5375C12.351 66.5182 12.4002 66.451 12.3769 66.3856C12.3519 66.3153 12.3326 66.2428 12.3196 66.1693C12.3178 66.1595 12.3165 66.15 12.3147 66.1402C12.3133 66.1317 12.3129 66.1053 12.3142 66.1393C12.3133 66.1209 12.3102 66.103 12.3084 66.0847C12.3053 66.0466 12.3039 66.0085 12.3039 65.9704C12.3039 65.906 12.247 65.8441 12.1808 65.8473C12.1145 65.8504 12.058 65.9015 12.058 65.9709Z" fill="#14966A"/>
<path d="M6.79778 71.5461C6.93483 71.5461 7.07143 71.5461 7.20848 71.5461C7.27298 71.5461 7.33479 71.4893 7.33165 71.423C7.32851 71.3562 7.27746 71.2998 7.20848 71.2998C7.07143 71.2998 6.93483 71.2998 6.79778 71.2998C6.73329 71.2998 6.67148 71.3567 6.67461 71.423C6.67775 71.4897 6.72881 71.5461 6.79778 71.5461Z" fill="#14966A"/>
<path d="M14.5281 66.8902C14.3405 66.9224 14.1533 66.9551 13.9656 66.9874C13.902 66.9986 13.8604 67.0801 13.8796 67.1392C13.902 67.2077 13.9629 67.2373 14.0314 67.2252C14.2191 67.193 14.4063 67.1603 14.594 67.128C14.6576 67.1168 14.6992 67.0353 14.68 66.9762C14.6576 66.9077 14.5962 66.8785 14.5281 66.8902Z" fill="#14966A"/>
<path d="M13.094 66.5193C13.094 66.556 13.0927 66.5927 13.09 66.629C13.0891 66.6402 13.0882 66.6514 13.0868 66.6626C13.0859 66.6693 13.0873 66.6828 13.0837 66.6877C13.0859 66.6702 13.0868 66.6662 13.0855 66.676C13.085 66.6801 13.0841 66.6845 13.0837 66.6886C13.0824 66.6984 13.0806 66.7083 13.0788 66.7177C13.0658 66.7911 13.0465 66.8637 13.0214 66.934C12.9999 66.9949 13.0456 67.0715 13.1074 67.0858C13.1764 67.1015 13.236 67.0648 13.2593 66.9998C13.3135 66.8462 13.3408 66.6823 13.3403 66.5193C13.3403 66.4548 13.2835 66.393 13.2172 66.3961C13.1504 66.3988 13.094 66.4499 13.094 66.5193Z" fill="#14966A"/>
<path d="M13.7761 68.4487C13.6391 68.4487 13.5025 68.4487 13.3654 68.4487C13.3009 68.4487 13.2391 68.5056 13.2422 68.5719C13.2454 68.6386 13.2964 68.6951 13.3654 68.6951C13.5025 68.6951 13.6391 68.6951 13.7761 68.6951C13.8406 68.6951 13.9024 68.6382 13.8993 68.5719C13.8966 68.5056 13.8451 68.4487 13.7761 68.4487Z" fill="#14966A"/>
<path d="M8.09302 72.2444C8.09302 72.3563 8.09302 72.4683 8.09302 72.5803C8.09302 72.6448 8.1499 72.7066 8.21618 72.7034C8.28292 72.7003 8.33935 72.6493 8.33935 72.5803C8.33935 72.4683 8.33935 72.3563 8.33935 72.2444C8.33935 72.1799 8.28247 72.1181 8.21618 72.1212C8.14945 72.1239 8.09302 72.1754 8.09302 72.2444Z" fill="#14966A"/>
<path d="M7.45568 73.74C7.59273 73.74 7.72933 73.74 7.86638 73.74C7.93088 73.74 7.99268 73.6831 7.98955 73.6168C7.98641 73.5501 7.93535 73.4937 7.86638 73.4937C7.72933 73.4937 7.59273 73.4937 7.45568 73.4937C7.39118 73.4937 7.32938 73.5505 7.33251 73.6168C7.33565 73.6831 7.38671 73.74 7.45568 73.74Z" fill="#14966A"/>
<path d="M8.75092 74.4377C8.75092 74.5497 8.75092 74.6617 8.75092 74.7736C8.75092 74.8381 8.8078 74.8999 8.87408 74.8968C8.94082 74.8937 8.99725 74.8426 8.99725 74.7736C8.99725 74.6617 8.99725 74.5497 8.99725 74.4377C8.99725 74.3732 8.94037 74.3114 8.87408 74.3146C8.80735 74.3173 8.75092 74.3683 8.75092 74.4377Z" fill="#14966A"/>
<path d="M10.8412 68.2079C10.9429 68.2661 11.045 68.3243 11.1466 68.3825C11.1744 68.3987 11.2107 68.4036 11.2416 68.3951C11.2703 68.387 11.3012 68.3651 11.3155 68.3382C11.3464 68.2795 11.3312 68.2038 11.2712 68.1694C11.1695 68.1111 11.0674 68.0529 10.9657 67.9947C10.9379 67.9786 10.9017 67.9736 10.8707 67.9821C10.8421 67.9902 10.8112 68.0122 10.7968 68.039C10.7659 68.0977 10.7816 68.1734 10.8412 68.2079Z" fill="#14966A"/>
<path d="M11.8229 70.7656C11.9103 70.84 11.9971 70.9148 12.0845 70.9891C12.1096 71.0106 12.1373 71.0254 12.1718 71.0254C12.2023 71.0254 12.2381 71.012 12.2591 70.9891C12.2806 70.9658 12.2968 70.9349 12.2954 70.9018C12.2941 70.8704 12.2838 70.8355 12.2591 70.8145C12.1718 70.7401 12.0849 70.6653 11.9976 70.591C11.9725 70.5695 11.9447 70.5547 11.9103 70.5547C11.8798 70.5547 11.844 70.5681 11.8229 70.591C11.8014 70.6143 11.7853 70.6452 11.7866 70.6783C11.7884 70.7092 11.7983 70.7446 11.8229 70.7656Z" fill="#14966A"/>
<path d="M13.6014 71.2136C13.5889 71.2382 13.5763 71.2633 13.5634 71.2879C13.5544 71.3023 13.5495 71.3175 13.5486 71.3336C13.545 71.3502 13.5454 71.3663 13.5508 71.3829C13.5549 71.399 13.562 71.4129 13.5728 71.425C13.5813 71.4384 13.5929 71.4492 13.6073 71.4568C13.6171 71.4608 13.627 71.4653 13.6368 71.4693C13.6588 71.4752 13.6807 71.4752 13.7022 71.4693C13.7121 71.4653 13.7219 71.4608 13.7318 71.4568C13.7501 71.446 13.7649 71.4313 13.7761 71.4124C13.7886 71.3878 13.8012 71.3627 13.8142 71.3381C13.8231 71.3238 13.8281 71.3085 13.829 71.2924C13.8325 71.2758 13.8321 71.2597 13.8267 71.2431C13.8227 71.227 13.8155 71.2131 13.8048 71.2011C13.7963 71.1876 13.7846 71.1769 13.7703 71.1693C13.7604 71.1652 13.7506 71.1607 13.7407 71.1567C13.7188 71.1509 13.6968 71.1509 13.6753 71.1567C13.6655 71.1607 13.6556 71.1652 13.6458 71.1693C13.627 71.18 13.6122 71.1948 13.6014 71.2136Z" fill="#14966A"/>
<path d="M10.5738 73.5172C10.7977 73.5916 11.0221 73.6655 11.246 73.7398C11.3074 73.76 11.3835 73.7165 11.3979 73.6538C11.4136 73.5857 11.3773 73.5239 11.3119 73.502C11.0879 73.4276 10.8636 73.3537 10.6396 73.2794C10.5783 73.2592 10.5021 73.3027 10.4878 73.3654C10.4721 73.4335 10.5079 73.4957 10.5738 73.5172Z" fill="#14966A"/>
<path d="M14.5872 73.2024C14.5004 73.2893 14.413 73.3766 14.3261 73.4635C14.3037 73.4859 14.2899 73.519 14.2899 73.5508C14.2899 73.5813 14.3033 73.6171 14.3261 73.6382C14.3494 73.6597 14.3803 73.6758 14.4135 73.6744C14.4462 73.6731 14.4771 73.6619 14.5008 73.6382C14.5877 73.5513 14.675 73.4639 14.7619 73.377C14.7843 73.3546 14.7982 73.3215 14.7982 73.2897C14.7982 73.2593 14.7848 73.2234 14.7619 73.2024C14.7386 73.1809 14.7077 73.1648 14.6746 73.1661C14.6414 73.1679 14.6105 73.1786 14.5872 73.2024Z" fill="#14966A"/>
<path d="M17.3135 66.944C17.3135 67.0188 17.3135 67.0931 17.3135 67.1679C17.3135 67.1997 17.3274 67.2329 17.3498 67.2553C17.3713 67.2768 17.4062 67.2929 17.4371 67.2916C17.4689 67.2902 17.502 67.2795 17.5244 67.2553C17.5464 67.2311 17.5607 67.2015 17.5607 67.1679C17.5607 67.0931 17.5607 67.0188 17.5607 66.944C17.5607 66.9122 17.5468 66.8791 17.5244 66.8567C17.5029 66.8352 17.468 66.819 17.4371 66.8204C17.4053 66.8217 17.3722 66.8325 17.3498 66.8567C17.3274 66.8809 17.3135 66.9104 17.3135 66.944Z" fill="#14966A"/>
<path d="M17.596 68.2498C17.6766 68.2851 17.7626 68.3048 17.8513 68.2945C17.9382 68.2842 18.0238 68.2583 18.0945 68.2045C18.1214 68.1839 18.142 68.1647 18.1514 68.1306C18.1595 68.1011 18.1559 68.0616 18.1389 68.0357C18.1218 68.0092 18.0968 67.986 18.065 67.9788C18.0349 67.9721 17.9955 67.9716 17.97 67.9913C17.9458 68.0101 17.9194 68.0254 17.8912 68.0375C17.901 68.0334 17.9109 68.029 17.9207 68.0249C17.8889 68.0384 17.8558 68.0469 17.8218 68.0518C17.8325 68.0505 17.8437 68.0487 17.8545 68.0473C17.8222 68.0513 17.79 68.0513 17.7573 68.0473C17.768 68.0487 17.7792 68.0505 17.79 68.0518C17.7577 68.0473 17.7264 68.0388 17.6964 68.0263C17.7062 68.0303 17.7161 68.0348 17.7259 68.0388C17.7241 68.0379 17.7223 68.0375 17.7205 68.0366C17.6892 68.0227 17.6601 68.0146 17.6256 68.024C17.5969 68.0321 17.566 68.054 17.5517 68.0809C17.5365 68.1096 17.5288 68.1441 17.5391 68.1759C17.5486 68.2045 17.5674 68.2372 17.596 68.2498Z" fill="#14966A"/>
<path d="M16.4356 68.9834C16.4531 69.0071 16.4679 69.0322 16.4795 69.0591C16.4755 69.0492 16.471 69.0394 16.467 69.0295C16.4795 69.0591 16.488 69.0895 16.4925 69.1213C16.4912 69.1106 16.4894 69.0994 16.488 69.0886C16.4907 69.1075 16.4916 69.1267 16.4912 69.146C16.4907 69.1773 16.5055 69.2114 16.5274 69.2333C16.5489 69.2548 16.5839 69.2709 16.6148 69.2696C16.6466 69.2682 16.6797 69.2575 16.7021 69.2333C16.7245 69.2091 16.7375 69.1796 16.7384 69.146C16.7388 69.1155 16.7353 69.086 16.7308 69.056C16.7276 69.0349 16.7232 69.0147 16.7169 68.9946C16.7012 68.9467 16.6797 68.8992 16.6493 68.8589C16.6416 68.8446 16.6309 68.8329 16.6175 68.8244C16.6054 68.8137 16.5915 68.806 16.5754 68.8025C16.5458 68.7944 16.5064 68.798 16.4804 68.815C16.454 68.832 16.4307 68.8571 16.4235 68.8889C16.4164 68.9185 16.4159 68.9574 16.4356 68.9834Z" fill="#14966A"/>
<path d="M101.445 30.523H76.0557C74.725 30.523 73.6465 29.4445 73.6465 28.1139V17.1118C73.6465 15.7811 74.725 14.7026 76.0557 14.7026H101.445C102.789 14.7026 103.878 15.7923 103.878 17.136V28.0897C103.878 29.4333 102.789 30.523 101.445 30.523Z" fill="#7A6CF2"/>
<path d="M83.463 20.245H99.6005C99.9552 20.245 100.243 19.9574 100.243 19.6027C100.243 19.248 99.9552 18.9604 99.6005 18.9604H83.463C83.1083 18.9604 82.8207 19.248 82.8207 19.6027C82.8212 19.9574 83.1087 20.245 83.463 20.245Z" fill="#A9CA5A"/>
<path d="M79.2535 22.9642H99.601C99.9557 22.9642 100.243 22.6767 100.243 22.3219C100.243 21.9672 99.9557 21.6797 99.601 21.6797H79.2535C78.8987 21.6797 78.6112 21.9672 78.6112 22.3219C78.6112 22.6767 78.8987 22.9642 79.2535 22.9642Z" fill="#A9CA5A"/>
<path d="M83.463 25.6839H99.6005C99.9552 25.6839 100.243 25.3964 100.243 25.0417C100.243 24.687 99.9552 24.3994 99.6005 24.3994H83.463C83.1083 24.3994 82.8207 24.687 82.8207 25.0417C82.8212 25.3964 83.1087 25.6839 83.463 25.6839Z" fill="#A9CA5A"/>
<path d="M76.9461 50.3931L76.822 50.6107C75.8439 51.9217 76.6111 53.3504 76.8175 54.2126C76.8623 54.3989 76.6639 54.5498 76.4951 54.4598L74.6229 53.4655C73.5333 52.8868 72.7804 51.829 72.5905 50.6098L72.5569 50.3931H76.9461Z" fill="#7A6CF2"/>
<path d="M78.4303 51.7847C83.9293 51.7847 88.3871 49.1543 88.3871 45.9094C88.3871 42.6646 83.9293 40.0342 78.4303 40.0342C72.9314 40.0342 68.4736 42.6646 68.4736 45.9094C68.4736 49.1543 72.9314 51.7847 78.4303 51.7847Z" fill="#7A6CF2"/>
<path d="M73.6179 46.4835C74.3441 46.4835 74.9329 45.8947 74.9329 45.1685C74.9329 44.4422 74.3441 43.8535 73.6179 43.8535C72.8916 43.8535 72.3029 44.4422 72.3029 45.1685C72.3029 45.8947 72.8916 46.4835 73.6179 46.4835Z" fill="#8CB6F4"/>
<path d="M77.9461 46.4835C78.6724 46.4835 79.2611 45.8947 79.2611 45.1685C79.2611 44.4422 78.6724 43.8535 77.9461 43.8535C77.2199 43.8535 76.6312 44.4422 76.6312 45.1685C76.6312 45.8947 77.2199 46.4835 77.9461 46.4835Z" fill="#8CB6F4"/>
<path d="M82.2745 46.4835C83.0007 46.4835 83.5895 45.8947 83.5895 45.1685C83.5895 44.4422 83.0007 43.8535 82.2745 43.8535C81.5483 43.8535 80.9595 44.4422 80.9595 45.1685C80.9595 45.8947 81.5483 46.4835 82.2745 46.4835Z" fill="#8CB6F4"/>
</g>
<defs>
<linearGradient id="paint0_linear_213_2245" x1="116.08" y1="35.5039" x2="88.5391" y2="63.0445" gradientUnits="userSpaceOnUse">
<stop offset="1.00387e-07" stop-color="#CAE0FF"/>
<stop offset="1" stop-color="#CAE0FF" stop-opacity="0.1"/>
</linearGradient>
<linearGradient id="paint1_linear_213_2245" x1="103.292" y1="-1.69692" x2="56.5898" y2="45.0051" gradientUnits="userSpaceOnUse">
<stop offset="1.00387e-07" stop-color="#CAE0FF"/>
<stop offset="1" stop-color="#CAE0FF" stop-opacity="0.1"/>
</linearGradient>
<linearGradient id="paint2_linear_213_2245" x1="88.3448" y1="-4.92359" x2="56.0828" y2="27.3384" gradientUnits="userSpaceOnUse">
<stop offset="1.00387e-07" stop-color="#CAE0FF"/>
<stop offset="1" stop-color="#CAE0FF" stop-opacity="0.1"/>
</linearGradient>
</defs>
</svg>
