<svg width="76" height="77" viewBox="0 0 76 77" fill="none" xmlns="http://www.w3.org/2000/svg">
<g clip-path="url(#clip0_215_2279)">
<path d="M33.2506 29.0728C32.7351 25.0724 29.0744 22.2474 25.0741 22.7629C21.0738 23.2783 18.2487 26.9391 18.7642 30.9394C19.2796 34.9397 22.9404 37.7648 26.9407 37.2493C30.941 36.7338 33.7661 33.0731 33.2506 29.0728Z" fill="#D49100"/>
<path d="M27.8161 36.0522C31.6807 34.8977 33.8777 30.8289 32.7233 26.9643C31.5688 23.0996 27.5 20.9026 23.6354 22.0571C19.7707 23.2116 17.5737 27.2804 18.7282 31.145C19.8827 35.0096 23.9515 37.2066 27.8161 36.0522Z" fill="#FFC60B"/>
<path d="M27.2745 34.2395C30.138 33.3841 31.7658 30.3694 30.9104 27.506C30.055 24.6426 27.0403 23.0147 24.1769 23.8701C21.3135 24.7255 19.6856 27.7402 20.541 30.6037C21.3964 33.4671 24.4111 35.0949 27.2745 34.2395Z" fill="#E89F00"/>
<path d="M24.3833 24.5619C25.699 24.1677 27.1154 24.2887 28.3451 24.9004C29.5748 25.5122 30.5257 26.5689 31.0049 27.8561C30.9792 27.7371 30.9492 27.6201 30.9149 27.5053C30.7232 26.8109 30.3947 26.1617 29.9489 25.5958C29.503 25.0299 28.9487 24.5587 28.3184 24.2098C27.6881 23.8609 26.9945 23.6413 26.2782 23.5639C25.562 23.4865 24.8375 23.5529 24.1472 23.7591C23.4569 23.9653 22.8147 24.3072 22.2583 24.7648C21.7018 25.2224 21.2423 25.7864 20.9067 26.4239C20.571 27.0614 20.366 27.7594 20.3036 28.4771C20.2412 29.1949 20.3226 29.9178 20.5432 30.6036C20.5777 30.7192 20.6109 30.8302 20.6604 30.9463C20.3559 29.6084 20.5709 28.2048 21.2621 27.0195C21.9533 25.8342 23.069 24.9558 24.3833 24.5619Z" fill="#D49100"/>
<path d="M43.0806 21.7533C46.9453 20.5989 49.1423 16.5301 47.9878 12.6654C46.8333 8.8008 42.7645 6.60378 38.8999 7.75826C35.0353 8.91274 32.8382 12.9815 33.9927 16.8462C35.1472 20.7108 39.216 22.9078 43.0806 21.7533Z" fill="#D49100"/>
<path d="M45.3133 19.4669C48.442 16.9213 48.9147 12.3215 46.3691 9.19284C43.8236 6.06419 39.2238 5.59147 36.0951 8.137C32.9665 10.6825 32.4937 15.2824 35.0393 18.411C37.5848 21.5397 42.1846 22.0124 45.3133 19.4669Z" fill="#FFC60B"/>
<path d="M44.1193 17.9992C46.4374 16.1131 46.7877 12.7049 44.9016 10.3868C43.0156 8.06869 39.6074 7.71844 37.2893 9.6045C34.9711 11.4906 34.6209 14.8987 36.5069 17.2169C38.393 19.535 41.8012 19.8852 44.1193 17.9992Z" fill="#E89F00"/>
<path d="M39.3634 9.30993C40.6785 8.917 42.0938 9.0385 43.3226 9.64982C44.5515 10.2611 45.5021 11.3166 45.9821 12.6025C45.9475 12.4869 45.928 12.3718 45.8921 12.2517C45.4585 10.9036 44.5139 9.77906 43.2608 9.11927C42.0077 8.45948 40.546 8.31698 39.1891 8.72232C37.8322 9.12767 36.6882 10.0486 36.0024 11.2876C35.3165 12.5266 35.1435 13.985 35.5204 15.35C35.5556 15.4679 35.5881 15.5767 35.6376 15.6927C35.3336 14.3547 35.5493 12.9511 36.2411 11.7661C36.9328 10.5811 38.0489 9.70317 39.3634 9.30993Z" fill="#D49100"/>
<path d="M53.8376 21.1757L12.3373 33.573C11.7398 33.7515 11.1834 34.0459 10.6998 34.4395C10.2162 34.8331 9.81485 35.3181 9.51873 35.8668C9.22262 36.4155 9.03752 37.0172 8.97401 37.6375C8.9105 38.2578 8.96982 38.8845 9.14859 39.4819L19.3798 73.7308C19.2382 73.2562 19.2854 72.7453 19.5116 72.3047C19.7378 71.8641 20.1255 71.5279 20.5937 71.3664L64.8813 58.1364C66.0875 57.7761 67.1011 56.9514 67.6992 55.8437C68.2973 54.736 68.4309 53.4361 68.0706 52.2299L59.747 24.3666C59.3865 23.1598 58.5614 22.1457 57.4532 21.5473C56.3449 20.9488 55.0443 20.8152 53.8376 21.1757Z" fill="#00AEEF"/>
<path d="M61.6597 56.9364L58.6912 57.8232C58.625 57.8479 58.5544 57.8588 58.4839 57.8552C58.4133 57.8515 58.3443 57.8334 58.281 57.802C58.2178 57.7705 58.1616 57.7264 58.1161 57.6724C58.0706 57.6184 58.0367 57.5555 58.0165 57.4879C57.9963 57.4202 57.9902 57.349 57.9986 57.2789C58.007 57.2088 58.0297 57.1411 58.0654 57.0801C58.101 57.0191 58.1488 56.9661 58.2058 56.9244C58.2628 56.8826 58.3278 56.853 58.3967 56.8374L61.3425 55.9574C61.4744 55.9174 61.6167 55.931 61.7386 55.9954C61.8604 56.0598 61.9519 56.1696 61.9932 56.3011C62.0135 56.3647 62.0209 56.4317 62.0151 56.4982C62.0093 56.5647 61.9904 56.6294 61.9593 56.6885C61.9283 56.7476 61.8858 56.8 61.8344 56.8425C61.7829 56.8851 61.7235 56.917 61.6597 56.9364ZM55.7226 58.7099L52.7745 59.5906C52.7084 59.6154 52.6378 59.6263 52.5673 59.6226C52.4967 59.619 52.4277 59.6009 52.3644 59.5695C52.3011 59.538 52.245 59.4939 52.1995 59.4399C52.154 59.3858 52.1201 59.323 52.0999 59.2553C52.0796 59.1876 52.0735 59.1165 52.082 59.0464C52.0904 58.9762 52.1131 58.9086 52.1488 58.8476C52.1844 58.7866 52.2322 58.7336 52.2892 58.6918C52.3462 58.6501 52.4112 58.6205 52.4801 58.6049L55.4372 57.7215C55.5034 57.6968 55.574 57.6859 55.6445 57.6895C55.7151 57.6931 55.7841 57.7113 55.8474 57.7427C55.9106 57.7741 55.9668 57.8182 56.0123 57.8723C56.0578 57.9263 56.0917 57.9891 56.1119 58.0568C56.1321 58.1245 56.1382 58.1956 56.1298 58.2658C56.1214 58.3359 56.0987 58.4036 56.063 58.4646C56.0274 58.5256 55.9796 58.5786 55.9226 58.6203C55.8656 58.6621 55.8006 58.6916 55.7317 58.7072L55.7226 58.7099ZM49.806 60.4774L46.8602 61.3574C46.794 61.3822 46.7234 61.3931 46.6529 61.3894C46.5823 61.3858 46.5133 61.3677 46.45 61.3362C46.3868 61.3048 46.3306 61.2607 46.2851 61.2067C46.2396 61.1526 46.2057 61.0898 46.1855 61.0221C46.1653 60.9544 46.1592 60.8833 46.1676 60.8132C46.176 60.743 46.1987 60.6754 46.2344 60.6144C46.27 60.5534 46.3178 60.5004 46.3748 60.4586C46.4318 60.4169 46.4968 60.3873 46.5657 60.3717L49.5115 59.4917C49.5777 59.4669 49.6483 59.456 49.7188 59.4597C49.7894 59.4633 49.8584 59.4814 49.9217 59.5129C49.9849 59.5443 50.0411 59.5884 50.0866 59.6425C50.1321 59.6965 50.166 59.7593 50.1862 59.827C50.2064 59.8947 50.2125 59.9658 50.2041 60.0359C50.1957 60.1061 50.173 60.1738 50.1373 60.2347C50.1017 60.2957 50.0539 60.3487 49.9969 60.3905C49.9399 60.4322 49.8749 60.4618 49.806 60.4774ZM43.8894 62.2449L40.9413 63.1256C40.8751 63.1503 40.8045 63.1612 40.734 63.1576C40.6634 63.1539 40.5944 63.1358 40.5311 63.1044C40.4679 63.073 40.4117 63.0288 40.3662 62.9748C40.3207 62.9208 40.2868 62.858 40.2666 62.7903C40.2464 62.7226 40.2403 62.6515 40.2487 62.5813C40.2571 62.5112 40.2798 62.4435 40.3155 62.3825C40.3511 62.3215 40.3989 62.2685 40.4559 62.2268C40.5129 62.185 40.5779 62.1554 40.6468 62.1398L43.604 61.2564C43.6701 61.2317 43.7407 61.2208 43.8112 61.2244C43.8818 61.2281 43.9508 61.2462 44.0141 61.2776C44.0774 61.3091 44.1335 61.3532 44.179 61.4072C44.2245 61.4613 44.2584 61.5241 44.2786 61.5918C44.2989 61.6594 44.305 61.7306 44.2965 61.8007C44.2881 61.8709 44.2654 61.9385 44.2297 61.9995C44.1941 62.0605 44.1463 62.1135 44.0893 62.1553C44.0323 62.197 43.9673 62.2266 43.8984 62.2422L43.8894 62.2449ZM37.9727 64.0124L35.0246 64.893C34.9585 64.9178 34.8879 64.9287 34.8174 64.9251C34.7468 64.9214 34.6778 64.9033 34.6145 64.8719C34.5512 64.8404 34.4951 64.7963 34.4496 64.7423C34.4041 64.6882 34.3702 64.6254 34.3499 64.5577C34.3297 64.4901 34.3236 64.4189 34.332 64.3488C34.3405 64.2786 34.3632 64.211 34.3988 64.15C34.4345 64.089 34.4823 64.036 34.5393 63.9942C34.5963 63.9525 34.6612 63.9229 34.7302 63.9073L37.6873 63.0239C37.7535 62.9992 37.8241 62.9883 37.8946 62.9919C37.9652 62.9956 38.0342 63.0137 38.0975 63.0451C38.1607 63.0765 38.2169 63.1207 38.2624 63.1747C38.3079 63.2287 38.3418 63.2915 38.362 63.3592C38.3822 63.4269 38.3883 63.498 38.3799 63.5682C38.3715 63.6383 38.3488 63.706 38.3131 63.767C38.2775 63.828 38.2297 63.881 38.1727 63.9227C38.1157 63.9645 38.0507 63.9941 37.9818 64.0096L37.9727 64.0124ZM32.0652 65.7771L29.108 66.6605C29.0418 66.6853 28.9713 66.6962 28.9007 66.6925C28.8302 66.6889 28.7611 66.6708 28.6979 66.6393C28.6346 66.6079 28.5785 66.5638 28.533 66.5097C28.4875 66.4557 28.4535 66.3929 28.4333 66.3252C28.4131 66.2575 28.407 66.1864 28.4154 66.1163C28.4238 66.0461 28.4466 65.9784 28.4822 65.9175C28.5179 65.8565 28.5657 65.8035 28.6227 65.7617C28.6797 65.72 28.7446 65.6904 28.8135 65.6748L31.7707 64.7914C31.8369 64.7666 31.9074 64.7557 31.978 64.7594C32.0485 64.763 32.1176 64.7811 32.1808 64.8126C32.2441 64.844 32.3002 64.8881 32.3457 64.9422C32.3912 64.9962 32.4251 65.059 32.4454 65.1267C32.4656 65.1944 32.4717 65.2655 32.4633 65.3357C32.4549 65.4058 32.4321 65.4735 32.3965 65.5345C32.3608 65.5954 32.313 65.6485 32.256 65.6902C32.199 65.7319 32.1341 65.7615 32.0652 65.7771ZM26.1485 67.5446L23.2027 68.4246C23.1365 68.4494 23.066 68.4603 22.9954 68.4566C22.9249 68.453 22.8558 68.4349 22.7926 68.4034C22.7293 68.372 22.6732 68.3279 22.6277 68.2738C22.5821 68.2198 22.5482 68.157 22.528 68.0893C22.5078 68.0216 22.5017 67.9505 22.5101 67.8803C22.5185 67.8102 22.5413 67.7425 22.5769 67.6815C22.6126 67.6206 22.6604 67.5675 22.7174 67.5258C22.7743 67.4841 22.8393 67.4545 22.9082 67.4389L25.8541 66.5589C25.9202 66.5341 25.9908 66.5232 26.0613 66.5269C26.1319 66.5305 26.2009 66.5486 26.2642 66.58C26.3275 66.6115 26.3836 66.6556 26.4291 66.7096C26.4746 66.7637 26.5085 66.8265 26.5287 66.8942C26.549 66.9619 26.5551 67.033 26.5466 67.1031C26.5382 67.1733 26.5155 67.2409 26.4798 67.3019C26.4442 67.3629 26.3964 67.4159 26.3394 67.4577C26.2824 67.4994 26.2174 67.529 26.1485 67.5446ZM64.1739 55.198C64.0696 55.2293 63.9582 55.2269 63.8555 55.191C63.7527 55.1551 63.664 55.0876 63.6019 54.9982C63.5399 54.9088 63.5077 54.8021 63.51 54.6933C63.5123 54.5845 63.549 54.4792 63.6148 54.3925C64.1761 53.6523 64.4906 52.7545 64.5142 51.8259C64.5124 51.7561 64.5249 51.6866 64.5508 51.6217C64.5768 51.5568 64.6156 51.4979 64.665 51.4484C64.7144 51.399 64.7733 51.3602 64.8382 51.3342C64.9031 51.3083 64.9726 51.2958 65.0424 51.2976C65.1123 51.2993 65.1811 51.3152 65.2446 51.3444C65.3081 51.3735 65.365 51.4152 65.4119 51.4671C65.4588 51.5189 65.4946 51.5797 65.5173 51.6458C65.54 51.7119 65.5489 51.7819 65.5437 51.8516C65.5147 52.9964 65.1271 54.1033 64.4355 55.0162C64.367 55.1059 64.2712 55.1709 64.1625 55.2014L64.1739 55.198ZM64.5284 49.3287C64.3978 49.3677 64.257 49.3534 64.1369 49.2889C64.0168 49.2244 63.9272 49.115 63.8875 48.9845L63.0055 46.0319C62.9664 45.9009 62.9809 45.7597 63.0458 45.6394C63.1108 45.519 63.2209 45.4295 63.3519 45.3903C63.4829 45.3512 63.6241 45.3657 63.7445 45.4307C63.8648 45.4956 63.9543 45.6057 63.9935 45.7367L64.8776 48.6962C64.8969 48.7619 64.9029 48.8309 64.8953 48.8989C64.8877 48.967 64.8666 49.0329 64.8332 49.0928C64.7998 49.1526 64.7549 49.2052 64.7009 49.2474C64.647 49.2897 64.5852 49.3208 64.5191 49.3389L64.5284 49.3287ZM59.226 31.5788C59.0954 31.6178 58.9546 31.6035 58.8345 31.539C58.7144 31.4745 58.6247 31.3651 58.5851 31.2346L57.7031 28.282C57.6639 28.151 57.6785 28.0098 57.7434 27.8895C57.8084 27.7691 57.9185 27.6796 58.0495 27.6404C58.1805 27.6013 58.3217 27.6158 58.442 27.6808C58.5624 27.7457 58.6519 27.8558 58.6911 27.9868L59.5751 30.9463C59.5945 31.012 59.6005 31.0809 59.5929 31.149C59.5853 31.2171 59.5642 31.283 59.5308 31.3428C59.4974 31.4027 59.4525 31.4553 59.3985 31.4975C59.3446 31.5398 59.2828 31.5709 59.2167 31.589L59.226 31.5788ZM56.816 25.9899C56.7309 26.0158 56.6406 26.0191 56.5538 25.9996C56.4671 25.9801 56.3869 25.9384 56.3211 25.8785C55.6324 25.2557 54.7663 24.8638 53.8438 24.7575C53.7165 24.7329 53.6031 24.6612 53.5263 24.5568C53.4495 24.4523 53.4149 24.3228 53.4293 24.1939C53.4437 24.0651 53.5062 23.9464 53.6042 23.8615C53.7023 23.7766 53.8287 23.7318 53.9583 23.736C55.0962 23.867 56.1649 24.3504 57.0147 25.1184C57.0826 25.1795 57.1329 25.2576 57.1606 25.3446C57.1882 25.4316 57.1921 25.5244 57.1719 25.6134C57.1517 25.7024 57.1082 25.7844 57.0457 25.851C56.9833 25.9176 56.9042 25.9663 56.8166 25.9921L56.816 25.9899ZM51.0241 25.2419L48.0669 26.1253C48.0008 26.1501 47.9302 26.161 47.8597 26.1573C47.7891 26.1537 47.7201 26.1356 47.6568 26.1041C47.5936 26.0727 47.5374 26.0286 47.4919 25.9746C47.4464 25.9205 47.4125 25.8577 47.3923 25.79C47.3721 25.7223 47.366 25.6512 47.3744 25.5811C47.3828 25.5109 47.4055 25.4433 47.4412 25.3823C47.4768 25.3213 47.5246 25.2683 47.5816 25.2265C47.6386 25.1848 47.7036 25.1552 47.7725 25.1396L50.7297 24.2562C50.7958 24.2314 50.8664 24.2205 50.9369 24.2242C51.0075 24.2278 51.0765 24.2459 51.1398 24.2774C51.2031 24.3088 51.2592 24.3529 51.3047 24.407C51.3502 24.461 51.3841 24.5238 51.4043 24.5915C51.4246 24.6592 51.4306 24.7303 51.4222 24.8005C51.4138 24.8706 51.3911 24.9383 51.3554 24.9993C51.3198 25.0602 51.272 25.1133 51.215 25.155C51.158 25.1967 51.093 25.2263 51.0241 25.2419ZM45.1075 27.0094L42.1616 27.8894C42.0955 27.9142 42.0249 27.9251 41.9544 27.9214C41.8838 27.9178 41.8148 27.8997 41.7515 27.8682C41.6883 27.8368 41.6321 27.7927 41.5866 27.7386C41.5411 27.6846 41.5072 27.6218 41.487 27.5541C41.4668 27.4864 41.4607 27.4153 41.4691 27.3451C41.4775 27.275 41.5002 27.2073 41.5359 27.1463C41.5715 27.0854 41.6193 27.0323 41.6763 26.9906C41.7333 26.9489 41.7983 26.9193 41.8672 26.9037L44.813 26.0237C44.8792 25.9989 44.9497 25.988 45.0203 25.9917C45.0908 25.9953 45.1599 26.0134 45.2232 26.0448C45.2864 26.0763 45.3425 26.1204 45.3881 26.1744C45.4336 26.2285 45.4675 26.2913 45.4877 26.359C45.5079 26.4267 45.514 26.4978 45.5056 26.5679C45.4972 26.6381 45.4745 26.7057 45.4388 26.7667C45.4032 26.8277 45.3553 26.8807 45.2984 26.9225C45.2414 26.9642 45.1764 26.9938 45.1075 27.0094ZM39.1909 28.7769L36.2337 29.6603C36.1675 29.685 36.097 29.6959 36.0264 29.6923C35.9559 29.6886 35.8868 29.6705 35.8235 29.6391C35.7603 29.6076 35.7042 29.5635 35.6587 29.5095C35.6131 29.4555 35.5792 29.3926 35.559 29.325C35.5388 29.2573 35.5327 29.1861 35.5411 29.116C35.5495 29.0459 35.5723 28.9782 35.6079 28.9172C35.6436 28.8562 35.6914 28.8032 35.7484 28.7615C35.8053 28.7197 35.8703 28.6901 35.9392 28.6745L38.8964 27.7911C38.9626 27.7664 39.0331 27.7555 39.1037 27.7591C39.1742 27.7628 39.2433 27.7809 39.3065 27.8123C39.3698 27.8438 39.4259 27.8879 39.4714 27.9419C39.5169 27.9959 39.5508 28.0588 39.5711 28.1264C39.5913 28.1941 39.5974 28.2653 39.589 28.3354C39.5806 28.4055 39.5578 28.4732 39.5222 28.5342C39.4865 28.5952 39.4387 28.6482 39.3817 28.6899C39.3247 28.7317 39.2598 28.7613 39.1909 28.7769ZM33.2742 30.5443L30.3284 31.4243C30.2622 31.4491 30.1917 31.46 30.1211 31.4564C30.0506 31.4527 29.9815 31.4346 29.9182 31.4032C29.855 31.3717 29.7989 31.3276 29.7533 31.2736C29.7078 31.2195 29.6739 31.1567 29.6537 31.089C29.6335 31.0214 29.6274 30.9502 29.6358 30.8801C29.6442 30.8099 29.6669 30.7423 29.7026 30.6813C29.7382 30.6203 29.7861 30.5673 29.843 30.5255C29.9 30.4838 29.965 30.4542 30.0339 30.4386L32.9798 29.5586C33.0459 29.5339 33.1165 29.523 33.187 29.5266C33.2576 29.5302 33.3266 29.5483 33.3899 29.5798C33.4532 29.6112 33.5093 29.6553 33.5548 29.7094C33.6003 29.7634 33.6342 29.8262 33.6544 29.8939C33.6746 29.9616 33.6807 30.0327 33.6723 30.1029C33.6639 30.173 33.6412 30.2407 33.6055 30.3017C33.5699 30.3627 33.5221 30.4157 33.4651 30.4574C33.4081 30.4992 33.3431 30.5287 33.2742 30.5443ZM27.3576 32.3118L24.4117 33.1918C24.3456 33.2166 24.275 33.2275 24.2045 33.2238C24.1339 33.2202 24.0649 33.2021 24.0016 33.1706C23.9383 33.1392 23.8822 33.0951 23.8367 33.0411C23.7912 32.987 23.7573 32.9242 23.7371 32.8565C23.7168 32.7888 23.7108 32.7177 23.7192 32.6476C23.7276 32.5774 23.7503 32.5098 23.786 32.4488C23.8216 32.3878 23.8694 32.3348 23.9264 32.293C23.9834 32.2513 24.0484 32.2217 24.1173 32.2061L27.0631 31.3261C27.1293 31.3013 27.1998 31.2904 27.2704 31.2941C27.3409 31.2977 27.41 31.3158 27.4733 31.3473C27.5365 31.3787 27.5926 31.4228 27.6381 31.4768C27.6837 31.5309 27.7176 31.5937 27.7378 31.6614C27.758 31.7291 27.7641 31.8002 27.7557 31.8703C27.7473 31.9405 27.7245 32.0081 27.6889 32.0691C27.6532 32.1301 27.6054 32.1831 27.5485 32.2249C27.4915 32.2666 27.4265 32.2962 27.3576 32.3118ZM21.441 34.0793L18.4951 34.9593C18.4289 34.984 18.3584 34.9949 18.2878 34.9913C18.2173 34.9877 18.1482 34.9695 18.085 34.9381C18.0217 34.9067 17.9656 34.8626 17.9201 34.8085C17.8746 34.7545 17.8407 34.6917 17.8204 34.624C17.8002 34.5563 17.7941 34.4852 17.8025 34.415C17.8109 34.3449 17.8337 34.2772 17.8693 34.2162C17.905 34.1552 17.9528 34.1022 18.0098 34.0605C18.0668 34.0187 18.1317 33.9892 18.2006 33.9736L21.1465 33.0936C21.2127 33.0688 21.2832 33.0579 21.3538 33.0615C21.4243 33.0652 21.4934 33.0833 21.5566 33.1147C21.6199 33.1462 21.676 33.1903 21.7215 33.2443C21.767 33.2984 21.8009 33.3612 21.8212 33.4289C21.8414 33.4965 21.8475 33.5677 21.8391 33.6378C21.8306 33.708 21.8079 33.7756 21.7723 33.8366C21.7366 33.8976 21.6888 33.9506 21.6318 33.9924C21.5748 34.0341 21.5099 34.0637 21.441 34.0793ZM15.5243 35.8467L12.5785 36.7268C12.5123 36.7515 12.4418 36.7624 12.3712 36.7588C12.3006 36.7551 12.2316 36.737 12.1683 36.7056C12.1051 36.6741 12.0489 36.63 12.0034 36.576C11.9579 36.522 11.924 36.4591 11.9038 36.3915C11.8836 36.3238 11.8775 36.2526 11.8859 36.1825C11.8943 36.1124 11.917 36.0447 11.9527 35.9837C11.9883 35.9227 12.0361 35.8697 12.0931 35.828C12.1501 35.7862 12.2151 35.7566 12.284 35.741L15.2299 34.861C15.296 34.8363 15.3666 34.8254 15.4371 34.829C15.5077 34.8327 15.5767 34.8508 15.64 34.8822C15.7032 34.9136 15.7594 34.9578 15.8049 35.0118C15.8504 35.0658 15.8843 35.1286 15.9045 35.1963C15.9247 35.264 15.9308 35.3351 15.9224 35.4053C15.914 35.4754 15.8913 35.5431 15.8556 35.6041C15.82 35.6651 15.7722 35.7181 15.7152 35.7598C15.6582 35.8016 15.5932 35.8312 15.5243 35.8467Z" fill="#8CE0FF"/>
<path d="M54.4084 35.8023L63.5406 33.0743C64.0893 32.9104 64.6806 32.9712 65.1845 33.2432C65.6884 33.5153 66.0636 33.9764 66.2275 34.5252L67.9158 40.1767C68.0797 40.7254 68.0189 41.3167 67.7468 41.8206C67.4748 42.3245 67.0136 42.6997 66.4649 42.8636L57.3328 45.5916C56.3111 45.8968 55.21 45.7837 54.2717 45.2771C53.3335 44.7704 52.6349 43.9118 52.3297 42.8902L51.7117 40.8213C51.4065 39.7996 51.5196 38.6985 52.0263 37.7602C52.5329 36.822 53.3915 36.1234 54.4132 35.8182L54.4084 35.8023Z" fill="#0091C7"/>
<path d="M59.0206 42.0786C60.2996 41.6966 61.0267 40.35 60.6446 39.0709C60.2626 37.7919 58.916 37.0648 57.6369 37.4468C56.3579 37.8289 55.6308 39.1755 56.0129 40.4546C56.395 41.7336 57.7416 42.4607 59.0206 42.0786Z" fill="#0089BD"/>
<path d="M60.5812 38.961C60.409 37.6373 59.1963 36.7038 57.8725 36.876C56.5488 37.0482 55.6153 38.2609 55.7875 39.5846C55.9598 40.9084 57.1725 41.8418 58.4962 41.6696C59.8199 41.4974 60.7534 40.2847 60.5812 38.961Z" fill="#00AEEF"/>
<path d="M64.88 58.1313L20.5925 71.3613C20.3278 71.4529 20.0866 71.6016 19.8859 71.797C19.8361 71.8442 19.7893 71.8944 19.7457 71.9475L19.7217 71.9744C19.6715 72.0363 19.6259 72.1019 19.5853 72.1706L19.5672 72.2007C19.5306 72.2621 19.4976 72.3255 19.4684 72.3907L19.4516 72.4253C19.4208 72.4993 19.3939 72.5749 19.3712 72.6517L19.365 72.6807C19.3457 72.749 19.331 72.8186 19.321 72.8889L19.3142 72.9403C19.3028 73.0196 19.297 73.0997 19.2969 73.1799C19.2969 73.1799 19.301 73.1935 19.303 73.2003C19.3036 73.2738 19.309 73.3472 19.3193 73.4201C19.3254 73.4404 19.3315 73.4608 19.3369 73.479C19.3507 73.5608 19.3691 73.6419 19.3921 73.7216C19.5357 74.209 19.8666 74.6196 20.3124 74.8635C20.7581 75.1074 21.2823 75.1647 21.7702 75.0229L63.3521 62.6011C65.2585 62.0317 66.8605 60.7282 67.8058 58.9775C68.7511 57.2269 68.9623 55.1724 68.3928 53.266L68.0807 52.2214C68.2594 52.8196 68.3183 53.4472 68.2541 54.0682C68.1899 54.6892 68.0038 55.2914 67.7065 55.8404C67.4092 56.3894 67.0065 56.8743 66.5215 57.2674C66.0365 57.6605 65.4787 57.9541 64.88 58.1313Z" fill="#0091C7"/>
</g>
<defs>
<clipPath id="clip0_215_2279">
<rect width="60.5438" height="60.5438" fill="white" transform="translate(0.475098 18.1973) rotate(-16.6324)"/>
</clipPath>
</defs>
</svg>
