<svg width="61" height="18" viewBox="0 0 61 18" fill="none" xmlns="http://www.w3.org/2000/svg">
<g clip-path="url(#clip0_92_698)">
<path fill-rule="evenodd" clip-rule="evenodd" d="M60.2446 7.45615C60.6738 8.08169 60.7169 9.06758 60.2614 9.83163C59.8547 10.514 57.4207 13.1327 56.6286 13.9741C55.9419 14.7051 55.0152 15.437 54.1031 15.437H35.0044C32.4233 15.437 32.2675 14.5456 32.2675 12.5301V4.35454C32.2675 2.29614 32.8639 1.70117 34.6266 1.70117H54.1031C55.0152 1.70117 55.8269 2.17546 56.7593 3.14117C57.5508 3.96066 59.9153 6.97489 60.2446 7.45615Z" fill="#33CCCC"/>
<path fill-rule="evenodd" clip-rule="evenodd" d="M60.2446 7.45615C60.6738 8.08169 60.7169 9.06758 60.2614 9.83163C59.8547 10.514 57.4207 13.1327 56.6286 13.9741C55.9419 14.7051 55.0152 15.437 54.1031 15.437H35.0044C32.4233 15.437 32.2675 14.5456 32.2675 12.5301V4.35454C32.2675 2.29614 32.8639 1.70117 34.6266 1.70117H54.1031C55.0152 1.70117 55.8269 2.17546 56.7593 3.14117C57.5508 3.96066 59.9153 6.97489 60.2446 7.45615Z" fill="url(#paint0_linear_92_698)"/>
<path fill-rule="evenodd" clip-rule="evenodd" d="M36.5971 4.8621V4.80827C36.5971 4.54542 36.5755 4.28559 36.1527 4.28559H34.5566C34.1856 4.28559 34.1621 4.49456 34.1621 4.81924V6.97987C34.9391 5.84816 35.8006 5.32233 36.5971 4.8621ZM47.3046 12.6693V12.5533H47.3057V7.35302C47.3057 5.17221 46.3646 4.08193 44.4823 4.08216C43.9607 4.07716 43.4479 4.21994 43.0013 4.49456C42.5533 4.76964 42.1228 5.15389 41.7099 5.6473C41.5069 5.11111 41.2008 4.71621 40.7917 4.46261C40.3824 4.20901 39.8522 4.0822 39.201 4.08216C38.4473 4.08216 37.571 4.35113 36.9499 4.87159C36.8109 5.01336 34.1618 7.1373 34.1618 9.31867V12.648C34.1618 12.7539 34.1117 13.1556 34.5535 13.1556H36.2152C36.7318 13.1556 36.6813 12.811 36.6813 12.6693V7.28462C36.9618 6.90564 37.5349 5.9697 38.4657 5.9697C38.823 5.9697 39.0803 6.09286 39.2376 6.33919C39.3949 6.58551 39.4739 6.99852 39.4745 7.57822V11.7839H39.4726V12.6481C39.4726 12.754 39.4224 13.1557 39.8642 13.1557H41.5046C42.0215 13.1557 41.9711 12.8111 41.9711 12.6694V12.5534H41.973V7.28484C42.2735 6.90587 42.8723 5.96993 43.7569 5.96993C44.1208 5.96993 44.3833 6.0931 44.5444 6.33942C44.7054 6.58574 44.7858 6.99875 44.7856 7.57844V11.7842H44.7839V12.6483C44.7839 12.7542 44.734 13.1559 45.176 13.1559H46.8382C47.3551 13.1557 47.3046 12.811 47.3046 12.6693ZM56.4558 10.555C55.8651 12.1742 54.4497 13.079 52.6961 13.079C50.156 13.079 48.4782 11.3159 48.4782 8.67147C48.4782 6.05896 50.22 4.1653 52.617 4.1653C54.9883 4.1653 56.5786 5.84747 56.6796 8.55719C56.6925 8.90342 56.5932 9.2093 56.1686 9.2093H50.7787C50.8107 10.6623 51.4984 11.4461 52.7124 11.4461C53.4529 11.4461 53.8916 11.1209 54.2736 10.4836C54.4396 10.2063 54.7802 10.2217 54.7802 10.2217H56.1686C56.3952 10.2215 56.4956 10.4471 56.4558 10.5548V10.555ZM52.617 5.84644C51.6095 5.84644 50.9066 6.56467 50.7787 7.74073H54.3903C54.2943 6.71204 53.7508 5.84644 52.617 5.84644Z" fill="white"/>
<path fill-rule="evenodd" clip-rule="evenodd" d="M9.9204 1.77609C9.7069 1.42953 9.42994 1.12805 9.10463 0.888092C8.77932 0.655275 8.42209 0.472728 8.04439 0.346377C7.62489 0.20719 7.1916 0.115494 6.75241 0.072949C6.24994 0.022617 5.74534 -0.00169967 5.24051 9.22416e-05H0.816091C0.418245 9.22416e-05 0.00121569 0.266264 0.00121569 0.768206V8.07623C0.561688 9.29423 1.65346 10.5873 2.89473 11.2053V9.75594C2.89473 8.99114 3.46014 8.82028 3.69401 8.82028H5.0022C6.80419 8.82028 8.17953 8.4348 9.12825 7.66388C10.077 6.89406 10.5513 5.75057 10.5513 4.23341C10.554 3.79503 10.504 3.35796 10.4027 2.93192C10.3019 2.52345 10.1391 2.13349 9.9204 1.77609ZM7.34216 5.52929C7.18941 5.79937 6.96154 6.01731 6.68739 6.15571C6.39024 6.30011 6.06925 6.38674 5.74091 6.41114C5.38333 6.4436 5.01407 6.45989 4.63314 6.45994H3.38996C3.08585 6.45994 2.89473 6.20777 2.89473 5.83577V2.84792C2.89473 2.51283 3.10919 2.37226 3.36634 2.37226H4.63314C5.04579 2.37226 5.43277 2.38439 5.79409 2.40866C6.11929 2.42377 6.43865 2.50231 6.73485 2.64003C6.99884 2.76805 7.21734 2.97635 7.36022 3.23621C7.51079 3.50345 7.58607 3.88059 7.58618 4.36763C7.58618 4.86215 7.50484 5.24937 7.34216 5.52929ZM2.89473 11.6776C1.52954 11.1219 0.614308 10.4591 0.00121569 9.80194V13.3299C0.00121569 13.3299 -0.0492725 13.9053 0.500483 13.9053H2.43075C2.96025 13.9053 2.89495 13.3299 2.89495 13.3299V11.6776H2.89473ZM30.2503 3.84461H28.518C28.1659 3.84461 27.9339 3.99535 27.7943 4.38975C27.6547 4.78415 25.8185 9.99343 25.8185 9.99343C25.8185 9.99343 24.062 4.89175 23.9238 4.49672C23.7856 4.10169 23.5586 3.84461 23.1497 3.84461H21.5579C20.9964 3.84461 20.9964 4.29392 21.066 4.47209C21.1225 4.61609 23.3023 10.7022 24.1326 13.0207C24.3283 13.5681 24.4056 13.7328 24.4117 13.9356C24.4178 14.1384 24.2154 14.5642 24.0755 14.8085C24.0113 14.92 23.9375 15.0256 23.8551 15.1239C25.4827 14.6275 27.3587 12.8263 28.3288 10.8749C29.288 8.15543 30.553 4.56301 30.6079 4.37923C30.6961 4.08158 30.6952 3.84461 30.2503 3.84461ZM22.6009 15.6414C22.4505 15.6387 22.3004 15.6277 22.1512 15.6083C21.9686 15.5837 21.627 15.6185 21.627 15.9233V17.2858C21.627 17.8058 21.871 17.8405 22.0054 17.8713C22.4096 17.9571 22.8219 17.9977 23.2348 17.9923C23.7821 17.9923 24.2583 17.8909 24.6634 17.6881C25.0725 17.4818 25.437 17.1944 25.7355 16.8426C26.0646 16.451 26.3427 16.0177 26.563 15.5535C26.8048 15.0547 27.0369 14.5053 27.2594 13.9052C27.2594 13.9052 27.3548 13.634 27.5119 13.1897C27.034 13.6811 24.7818 15.8566 22.6009 15.6414ZM19.9994 5.46203C19.9054 5.23431 19.777 5.02297 19.6188 4.83569C19.4613 4.65592 19.2809 4.49834 19.0825 4.36712C18.8684 4.22532 18.6412 4.10511 18.4043 4.00821C18.1623 3.91195 17.9134 3.83477 17.6598 3.77735C17.3716 3.71304 17.0791 3.67035 16.7847 3.64963C16.4668 3.62552 16.1095 3.61337 15.7127 3.61318C13.0883 3.61318 11.594 4.45807 11.2297 6.14789C11.1112 6.67223 11.6204 6.70303 11.6204 6.70303H13.2348C13.6563 6.70303 13.6382 6.56469 13.8427 6.17646C13.9163 5.9652 14.0489 5.7804 14.2242 5.64472C14.534 5.40159 14.9984 5.28002 15.6173 5.27998C16.2129 5.27998 16.6455 5.39745 16.9153 5.63238C17.1851 5.86731 17.3439 6.22417 17.3916 6.70303C17.3916 7.25829 17.2216 7.62874 16.5627 7.62874C14.9562 7.56931 13.2299 7.75446 12.2577 8.32228C11.2854 8.89011 10.7357 10.0002 10.7357 11.1924C10.7357 11.6787 10.8211 12.1045 10.9918 12.4698C11.1572 12.8279 11.4018 13.1422 11.7064 13.3881C12.0296 13.6448 12.4 13.833 12.7957 13.9416C13.2456 14.0673 13.7104 14.1288 14.1768 14.1245C14.8755 14.1245 15.4928 14.0352 16.0287 13.8567C16.5645 13.6785 17.3936 13.091 17.4992 13.0053V13.3185C17.4992 13.6288 17.5919 13.9056 17.9555 13.9056H19.8328C20.2128 13.9056 20.2973 13.6288 20.2973 13.2882V7.39668C20.3006 7.03046 20.2768 6.66451 20.226 6.30194C20.1858 6.01331 20.1096 5.73109 19.9994 5.46203ZM17.4394 11.2384C17.4394 11.2384 16.9546 12.2642 15.2244 12.2642C14.7484 12.2642 14.3614 12.1547 14.0635 11.9359C13.7655 11.717 13.6166 11.3763 13.6168 10.9139C13.6168 10.3134 13.859 9.88943 14.3435 9.64217C14.8274 9.39508 15.7964 9.25394 16.5225 9.27126C17.2485 9.28857 17.4394 9.75594 17.4394 10.0786V11.2386V11.2384Z" fill="#333333"/>
</g>
<defs>
<linearGradient id="paint0_linear_92_698" x1="69.9418" y1="5.66717" x2="66.0981" y2="28.4572" gradientUnits="userSpaceOnUse">
<stop offset="0.47231" stop-color="#00CCCC"/>
<stop offset="1" stop-color="#3399FF"/>
</linearGradient>
<clipPath id="clip0_92_698">
<rect width="60.5854" height="18" fill="white"/>
</clipPath>
</defs>
</svg>
