<svg width="47" height="47" viewBox="0 0 47 47" fill="none" xmlns="http://www.w3.org/2000/svg">
<g clip-path="url(#clip0_1_2)">
<path d="M0 10.0867C0 4.51596 4.51596 0 10.0867 0H36.0238C41.5945 0 46.1105 4.51596 46.1105 10.0867V36.0238C46.1105 41.5945 41.5945 46.1105 36.0238 46.1105H10.0867C4.51596 46.1105 0 41.5945 0 36.0238V10.0867Z" fill="#3F51B5"/>
<path fill-rule="evenodd" clip-rule="evenodd" d="M28.7264 30.2264H37.0809V15.1643H35.702V27.2763C35.702 27.5821 35.4413 27.8299 35.1187 27.8299C31.9919 27.8299 29.5369 28.9776 27.7317 30.321C28.0528 30.2601 28.3845 30.2264 28.7264 30.2264ZM29.2716 28.0427L29.2673 28.0437L29.265 28.0457L29.2716 28.0427ZM35.702 13.5042H37.9553C38.4383 13.5042 38.8291 13.8757 38.8291 14.3336V31.0565C38.8291 31.5144 38.4383 31.8868 37.9553 31.8868H28.7264C26.2262 31.8868 24.1717 34.6658 24.1358 34.7143L24.1355 34.7148C24.1334 34.7174 24.1303 34.7196 24.1282 34.7224C24.092 34.7715 24.0498 34.8165 24.0032 34.8574L23.9993 34.8603C23.9907 34.8668 23.9825 34.8729 23.9743 34.8797C23.9293 34.9163 23.8801 34.9484 23.827 34.9761C23.8232 34.9777 23.8198 34.9796 23.816 34.9816L23.8156 34.9818C23.771 35.0041 23.7226 35.0238 23.673 35.0386C23.6643 35.0412 23.6556 35.0427 23.647 35.0441C23.643 35.0448 23.6391 35.0455 23.6351 35.0463C23.6257 35.0491 23.6158 35.0504 23.6064 35.0525C23.5428 35.0666 23.4782 35.075 23.4145 35.075C23.4116 35.075 23.4091 35.0745 23.4067 35.0741C23.4054 35.0739 23.404 35.0738 23.4027 35.0738C23.3465 35.0727 23.2904 35.0657 23.2349 35.0547C23.2283 35.0532 23.2217 35.0518 23.215 35.0505C23.205 35.0485 23.1948 35.0464 23.1845 35.0438C23.1751 35.0415 23.1651 35.0398 23.1554 35.037C23.1074 35.0229 23.0623 35.005 23.0192 34.9845C23.0136 34.9818 23.0083 34.9785 23.003 34.9753C22.9974 34.9718 22.9918 34.9684 22.986 34.9658C22.9417 34.9417 22.901 34.9147 22.8625 34.8847C22.8574 34.8805 22.8521 34.8766 22.8469 34.8727C22.8385 34.8663 22.8302 34.86 22.8225 34.8529C22.778 34.8137 22.7375 34.7708 22.7018 34.7235C22.7008 34.7219 22.6994 34.7206 22.6979 34.7193C22.6963 34.7179 22.6948 34.7166 22.6936 34.7148C22.664 34.6746 20.607 31.8868 18.1031 31.8868H8.87476C8.39168 31.8868 8 31.5144 8 31.0565V14.3336C8 13.8757 8.39168 13.5042 8.87476 13.5042H18.1654C20.762 13.5042 22.4974 14.9847 23.4145 16.0565C23.5303 15.9216 23.6603 15.78 23.8019 15.6359C24.5515 14.523 25.8047 13.07 27.722 11.9168C27.7264 11.9142 27.7309 11.9117 27.7354 11.9091C27.7399 11.9066 27.7444 11.904 27.7488 11.9014C28.9919 11.1579 30.5175 10.5474 32.3661 10.2332L32.4063 10.2185L32.4189 10.2239C33.2541 10.085 34.147 10 35.1187 10C35.4413 10 35.702 10.2478 35.702 10.5536V13.5042ZM12.9209 19.895C13.6776 19.1554 14.7038 18.7399 15.7739 18.7399C16.8439 18.7399 17.8702 19.1554 18.6268 19.895C19.3835 20.6346 19.8085 21.6377 19.8085 22.6836H18.2955C18.028 22.6836 17.7715 22.7875 17.5823 22.9724C17.3931 23.1573 17.2869 23.408 17.2869 23.6695V26.1343C17.2869 26.3958 17.3931 26.6466 17.5823 26.8315C17.7715 27.0163 18.028 27.1202 18.2955 27.1202H19.8085C20.076 27.1202 20.3326 27.0163 20.5218 26.8315C20.7109 26.6466 20.8172 26.3958 20.8172 26.1343V22.6836C20.8172 19.961 18.5593 17.754 15.7739 17.754C12.9884 17.754 10.7305 19.961 10.7305 22.6836V26.1343C10.7305 26.3958 10.8368 26.6466 11.026 26.8315C11.2151 27.0163 11.4717 27.1202 11.7392 27.1202H13.2522C13.5197 27.1202 13.7763 27.0163 13.9654 26.8315C14.1546 26.6466 14.2609 26.3958 14.2609 26.1343V23.6695C14.2609 23.408 14.1546 23.1573 13.9654 22.9724C13.7763 22.7875 13.5197 22.6836 13.2522 22.6836H11.7392C11.7392 21.6377 12.1643 20.6346 12.9209 19.895ZM11.7392 26.1343V23.6695H13.2522V26.1343H11.7392ZM18.2955 26.1343V23.6695H19.8085V26.1343H18.2955Z" fill="white"/>
</g>
<defs>
<clipPath id="clip0_1_2">
<rect width="47" height="47" fill="white"/>
</clipPath>
</defs>
</svg>
